<svg width="38" height="38" viewBox="0 0 38 38" fill="none" xmlns="http://www.w3.org/2000/svg">
<path d="M10.5641 37.3297C9.87526 37.0236 9.56913 36.5644 9.64566 35.7991C9.64566 35.4164 9.64566 34.9572 9.64566 34.5745C9.49259 34.5745 9.33953 34.5745 9.18646 34.5745C7.34966 34.5745 5.5894 34.5745 3.7526 34.5745C2.8342 34.5745 2.375 34.1153 2.375 33.1969C2.375 32.8143 2.375 32.4316 2.375 32.0489C2.375 31.6663 2.6046 31.4367 2.91073 31.4367C3.21687 31.4367 3.44647 31.6663 3.44647 32.0489C3.44647 32.4316 3.44647 32.8143 3.44647 33.1969C3.44647 33.35 3.523 33.4265 3.67607 33.4265C5.66593 33.4265 7.57926 33.4265 9.64566 33.4265C9.64566 32.202 9.64566 31.054 9.64566 29.906C8.19153 28.9876 7.73233 28.3753 7.50273 26.6916C6.58433 26.6916 5.66593 26.6151 4.82406 26.6916C4.05873 26.7681 3.523 27.61 3.44647 28.4519C3.44647 28.8345 3.44647 29.1407 3.44647 29.5233C3.44647 29.906 3.21687 30.1356 2.91073 30.1356C2.6046 30.1356 2.375 29.906 2.375 29.5233C2.375 29.1407 2.375 28.6815 2.375 28.2988C2.45153 27.3804 2.91073 26.6151 3.67607 26.0793C3.7526 26.0028 3.82913 26.0028 3.90567 25.9263C3.59953 24.9313 3.21687 24.0129 2.98727 23.0945C1.76273 18.1964 2.52807 13.6809 5.3598 9.47161C5.51286 9.24201 5.5894 9.08894 5.43633 8.78281C5.05366 8.01748 5.20673 7.09908 5.819 6.48681C6.43126 5.87455 7.27313 5.64495 8.115 6.02761C8.26806 6.18068 8.42113 6.10415 8.5742 5.95108C9.49259 5.33881 10.3345 4.72655 11.2529 4.11428C11.6355 3.88468 11.9417 3.96121 12.0947 4.26735C12.2478 4.57348 12.0947 4.80308 11.7886 5.03268C10.9467 5.64495 10.1049 6.18068 9.26299 6.79294C9.10993 6.86948 9.10993 7.02254 9.18646 7.17561C9.49259 7.94094 9.33953 8.70628 8.80379 9.24201C8.26806 9.85427 7.57926 10.0839 6.7374 9.85427C6.5078 9.77774 6.43126 9.85427 6.2782 10.0073C4.74753 12.2268 3.82913 14.6759 3.59953 17.4311C3.2934 20.1863 3.7526 22.7884 4.82406 25.314C4.9006 25.5436 5.05366 25.6201 5.3598 25.6201C6.43126 25.6201 7.50273 25.6201 8.49766 25.6201C8.57419 25.314 8.49766 25.1609 8.3446 25.0079C7.4262 24.2425 6.81393 23.3241 6.66086 22.1761C6.66086 21.9465 6.58433 21.87 6.35473 21.7935C4.97713 21.4108 4.51793 19.7271 5.51286 18.6556C5.5894 18.5791 5.66593 18.3495 5.66593 18.1964C5.66593 17.0484 5.66593 15.9769 5.66593 14.8289C5.66593 13.1452 6.7374 11.9207 8.26806 11.6145C8.49766 11.538 8.80379 11.538 9.03339 11.538C10.1814 11.538 11.3294 11.538 12.4774 11.538C13.2427 11.538 14.0081 11.7676 14.6203 12.3033C14.6969 12.3799 14.8499 12.3799 14.9265 12.3799C15.6153 12.0737 16.3041 11.9972 17.0694 11.9972C17.4521 11.9972 17.7582 11.9972 18.1409 11.9972C18.447 11.9972 18.6766 12.2268 18.7531 12.5329C18.7531 12.8391 18.5235 13.0687 18.1409 13.0687C17.6051 13.0687 17.0694 13.0687 16.5337 13.0687C15.1561 13.0687 14.0081 14.1401 13.9315 15.5177C13.855 16.6657 13.9315 17.8137 13.9315 18.9617C13.9315 19.0383 13.9315 19.0383 13.9315 19.1148C14.2377 19.1913 14.2377 19.0383 14.3142 18.8087C14.4673 17.9668 14.7734 17.2015 15.2326 16.5127C15.5387 16.13 15.6918 16.0535 16.151 16.2065C17.6051 16.6657 18.9827 17.0484 20.5134 17.2015C20.8961 17.2015 21.3552 17.2015 21.7379 17.1249C21.9675 17.0484 22.2737 16.8953 22.4267 16.7423C22.7329 16.4361 23.1155 16.4361 23.3451 16.8188C23.7278 17.4311 24.0339 18.1199 24.1104 18.8087C24.1104 18.9617 24.187 19.1913 24.4166 19.1148C24.4166 19.0383 24.4166 18.9617 24.4166 18.8852C24.4166 18.1199 24.4166 17.3545 24.4166 16.5892C24.4166 16.2065 24.34 15.9769 23.8808 15.9769C23.5747 15.9004 23.4216 15.6708 23.4216 15.3647C23.4216 14.7524 23.1921 14.2932 22.8094 13.834C22.3502 13.2983 21.7379 13.0687 21.1257 13.0687C20.8961 13.0687 20.6665 13.0687 20.5134 13.0687C20.2073 13.0687 19.9777 12.8391 19.9777 12.5329C19.9777 12.2268 20.2073 11.9972 20.5134 11.9972C21.3553 11.9207 22.1971 12.0737 22.8859 12.4564C23.6512 11.6911 24.5696 11.4615 25.5646 11.538C26.7126 11.538 27.784 11.538 28.932 11.538C30.3862 11.538 31.5342 12.4564 31.9168 13.834C31.9168 13.9105 31.9934 14.0636 32.1464 14.1401C32.6056 14.4463 32.8352 14.9055 32.8352 15.4412C32.8352 16.2831 32.8352 17.2015 32.8352 18.0433C32.8352 18.1964 32.9118 18.426 33.0648 18.5025C34.0598 19.574 33.6006 21.1812 32.223 21.6404C31.9934 21.7169 31.9934 21.7935 31.9168 21.9465C31.6872 23.0945 31.1515 24.0895 30.2331 24.8548C30.08 24.9313 30.08 25.1609 29.927 25.314L30.0035 25.3905C30.5392 25.3905 30.9984 25.3905 31.5342 25.3905C32.0699 25.3905 32.6822 25.3905 33.2179 25.3905C33.524 25.3905 33.6006 25.314 33.7536 25.0844C34.8251 22.5588 35.2078 19.9567 34.9782 17.278C34.7486 14.5993 33.8302 12.1503 32.376 9.93081C32.223 9.70121 32.0699 9.62467 31.8403 9.70121C31.075 9.93081 30.3862 9.70121 29.8504 9.08894C29.3147 8.47668 29.1616 7.78788 29.4678 7.02254C29.3912 7.02254 29.3147 6.86948 29.1616 6.71641C26.9422 4.95615 24.4166 3.80815 21.5849 3.34895C21.2787 3.27241 21.1257 3.34895 20.9726 3.65508C20.2073 5.03268 18.2174 4.95615 17.4521 3.65508C17.299 3.42548 17.1459 3.34895 16.9163 3.42548C15.9979 3.65508 15.0795 3.88468 14.1611 4.11428C14.0081 4.19081 13.7019 4.19081 13.5489 4.11428C13.3958 4.03775 13.2427 3.80815 13.3193 3.65508C13.3958 3.50201 13.5489 3.19588 13.7019 3.19588C14.6203 2.88975 15.4622 2.73668 16.3806 2.50708C16.4571 2.50708 16.4571 2.50708 16.5337 2.50708C16.9929 2.50708 17.2225 2.35402 17.3755 1.89482C17.7582 0.976416 18.447 0.59375 19.3654 0.59375C20.2073 0.670283 20.8961 1.05295 21.2022 1.89482C21.3553 2.20095 21.5083 2.27748 21.8144 2.35401C24.8758 2.81321 27.5544 3.96121 29.927 5.95108C30.1566 6.10415 30.3096 6.18068 30.6158 6.02761C31.3811 5.72148 32.2995 5.95108 32.8352 6.56334C33.371 7.17561 33.524 8.09401 33.1414 8.85934C33.0648 9.01241 32.9883 9.16548 33.1414 9.39508C36.5854 14.5228 37.0446 19.9567 34.7486 25.6967C34.7486 25.7732 34.672 25.8497 34.672 25.9263C34.8251 26.0028 34.9016 26.0793 35.0547 26.2324C35.82 26.8447 36.2027 27.61 36.2027 28.6049C36.2027 30.1356 36.2027 31.7428 36.2027 33.2735C36.2027 34.1919 35.7435 34.6511 34.8251 34.6511C32.9883 34.6511 31.228 34.6511 29.3912 34.6511C29.2382 34.6511 29.0851 34.6511 28.932 34.6511C28.932 35.1103 28.932 35.4929 28.932 35.8756C29.0086 36.6409 28.7024 37.1001 28.0136 37.4062C22.1206 37.3297 16.3806 37.3297 10.5641 37.3297ZM23.1155 28.6049C22.8859 31.054 21.0491 32.3551 19.2889 32.3551C18.3705 32.3551 17.6051 32.1255 16.9163 31.5132C15.9214 30.7479 15.4622 29.7529 15.3857 28.5284C14.5438 28.5284 13.7785 28.5284 12.9366 28.5284C11.559 28.5284 10.7171 29.3703 10.7171 30.7479C10.7171 32.4316 10.7171 34.1153 10.7171 35.7991C10.7171 36.1052 10.7937 36.2583 11.1763 36.2583C14.3142 36.2583 17.4521 36.2583 20.5899 36.2583C22.8859 36.2583 25.1819 36.2583 27.4779 36.2583C27.631 36.2583 27.8606 36.3348 27.8606 36.0287C27.8606 34.1919 27.8606 32.4316 27.8606 30.5948C27.8606 29.5999 27.0187 28.6815 26.1003 28.6815C25.0288 28.5284 24.1104 28.6049 23.1155 28.6049ZM22.8859 18.1199C20.4369 18.9617 18.2939 18.0433 16.0745 17.5076C15.9979 17.5841 15.9214 17.6607 15.9214 17.8137C15.5387 18.3495 15.3857 18.9617 15.3857 19.574C15.3857 20.8751 15.3091 22.1761 15.4622 23.4007C15.6918 25.3905 17.5286 26.8447 19.5185 26.6916C21.5083 26.5385 23.1155 24.9313 23.1155 22.9415C23.1155 21.7935 23.1155 20.6455 23.1155 19.4975C23.1155 19.0383 22.9624 18.5791 22.8859 18.1199ZM7.96193 16.9719C7.8854 17.4311 7.73233 17.8137 7.6558 18.1964C7.57926 19.3444 7.57926 20.5689 7.6558 21.7169C7.80886 23.7833 9.64566 25.1609 11.6355 24.8548C12.6305 24.7017 13.4723 24.0895 14.0081 23.2476C13.9315 23.2476 13.855 23.1711 13.855 23.1711C12.5539 22.6353 12.0947 21.4108 12.7835 20.1863C12.7835 20.1097 12.8601 20.1097 12.8601 20.0332C12.8601 19.2679 12.8601 18.5791 12.8601 17.8137C11.1763 17.8137 9.64566 17.4311 7.96193 16.9719ZM34.9782 33.5031C34.9782 31.7428 34.9782 30.0591 34.9782 28.3753C34.9782 27.61 34.3659 26.8447 33.6006 26.7681C32.6822 26.6916 31.8403 26.7681 30.9219 26.7681C30.6923 28.4519 30.2331 29.1407 28.779 29.9825C28.779 31.2071 28.779 32.3551 28.779 33.5031C30.9219 33.5031 32.9118 33.5031 34.9782 33.5031ZM24.4931 23.1711C24.4931 23.2476 24.5696 23.3241 24.5696 23.3241C25.335 24.4721 26.8656 25.0844 28.1667 24.7783C29.6208 24.3956 30.6923 23.2476 30.7688 21.7935C30.8454 20.722 30.8454 19.574 30.7688 18.5025C30.7688 18.1199 30.6158 17.6607 30.6158 17.278C28.8555 18.1199 27.2483 17.5841 25.5646 17.278C25.5646 18.0433 25.5646 18.8087 25.5646 19.574C25.5646 19.8036 25.6411 19.9567 25.7176 20.1097C26.2534 21.1812 25.8707 22.4823 24.7227 22.9415C24.6462 23.0945 24.5696 23.1711 24.4931 23.1711ZM23.8043 13.2217C24.0339 13.7575 24.2635 14.2932 24.4931 14.8289C24.5696 15.0585 24.6462 15.1351 24.7992 15.2881C25.0288 15.5177 25.2584 15.7473 25.488 16.0535C25.5646 16.13 25.7176 16.2831 25.7942 16.3596C26.3299 16.5127 26.7891 16.6657 27.3248 16.6657C28.0902 16.7423 28.779 16.7423 29.5443 16.6657C29.7739 16.6657 29.927 16.3596 30.08 16.2065C30.2331 16.0535 30.3862 15.8239 30.5392 15.8239C30.6923 15.8239 30.9219 15.9769 31.075 16.13C31.3046 16.4361 31.4576 16.7423 31.6107 17.1249C31.6107 16.5127 31.6107 15.9769 31.6107 15.5177C31.6107 15.4412 31.4576 15.2881 31.3811 15.2116C30.9984 15.1351 30.8454 14.9055 30.8454 14.5228C30.7688 13.5279 30.0035 12.7625 29.0086 12.7625C27.7075 12.7625 26.4064 12.7625 25.1054 12.7625C24.5696 12.686 24.1104 12.9156 23.8043 13.2217ZM6.81393 16.9719C6.967 16.7423 7.12006 16.5127 7.1966 16.2831C7.50273 15.8239 7.6558 15.7473 8.19153 15.9004C8.95686 16.13 9.72219 16.2831 10.4875 16.5127C11.2529 16.6657 12.0947 16.8188 12.9366 16.6657C12.8601 15.3647 13.0131 14.1401 13.9315 13.2217C13.5489 12.9156 13.1662 12.7625 12.707 12.7625C11.4059 12.7625 10.1814 12.7625 8.88033 12.7625C7.73233 12.7625 6.89046 13.5279 6.81393 14.6759C6.7374 15.3647 6.81393 16.2065 6.81393 16.9719ZM20.8195 27.5335C19.595 27.8396 19.2123 27.9161 17.6051 27.5335C17.8347 28.4519 17.299 28.6815 16.5337 28.5284C16.6102 30.0591 17.8347 31.2836 19.3654 31.2836C20.8961 31.2071 22.1206 29.9825 22.0441 28.6049C21.7379 28.5284 21.3553 28.5284 21.2022 28.3753C20.8961 28.2223 20.8961 27.8396 20.8195 27.5335ZM10.0283 28.9111C10.411 28.5284 10.7937 28.2223 11.1763 27.9161C11.7886 27.5335 12.4009 27.4569 13.1662 27.4569C13.3193 27.4569 13.4723 27.3804 13.4723 27.3039C13.5489 27.1508 13.5489 26.9212 13.6254 26.6151C12.9366 26.6916 12.4774 26.5385 12.5539 25.6967C11.559 26.0028 10.6406 26.0028 9.72219 25.7732C9.64566 26.0793 9.56913 26.3855 9.41606 26.5385C9.26299 26.6916 8.88033 26.6916 8.65073 26.7681C8.57419 27.61 9.18646 28.5284 10.0283 28.9111ZM25.9472 25.7732C25.7942 26.5385 25.7942 26.5385 24.9523 26.6916C24.8758 27.3804 24.9523 27.4569 25.6411 27.4569C26.483 27.4569 27.2483 27.6865 27.8606 28.2988C28.0902 28.4519 28.2432 28.6815 28.4728 28.9111C29.3912 28.5284 30.08 27.4569 29.927 26.6916C29.0851 26.6151 29.0086 26.6916 28.932 25.7732C27.8606 26.0793 26.9422 26.0028 25.9472 25.7732ZM7.27313 8.93588C7.80886 8.93588 8.26806 8.47668 8.26806 7.94094C8.26806 7.40521 7.80886 6.94601 7.34966 6.94601C6.81393 6.94601 6.35473 7.32868 6.35473 7.86441C6.2782 8.47668 6.7374 8.93588 7.27313 8.93588ZM19.2123 3.57855C19.7481 3.57855 20.2073 3.11935 20.2073 2.58361C20.2073 2.04788 19.7481 1.66522 19.2123 1.58868C18.6766 1.58868 18.2174 2.04788 18.2174 2.58361C18.2939 3.19588 18.6766 3.57855 19.2123 3.57855ZM31.228 8.93588C31.7638 8.93588 32.223 8.47668 32.223 7.94094C32.223 7.40521 31.8403 7.02254 31.3046 6.94601C30.7688 6.94601 30.3096 7.32868 30.3096 7.86441C30.2331 8.47668 30.6923 8.93588 31.228 8.93588ZM16.4571 27.4569C16.5337 26.9977 16.3806 26.6916 16.0745 26.6916C15.6153 26.6151 15.1561 26.6916 14.6203 26.6916C14.6203 26.9977 14.5438 27.2273 14.5438 27.4569C15.2326 27.4569 15.8449 27.4569 16.4571 27.4569ZM23.8043 26.6916C23.4216 26.6916 23.039 26.6916 22.6563 26.6916C22.1206 26.6916 21.891 26.9212 22.0441 27.4569C22.6563 27.4569 23.2686 27.4569 23.9574 27.4569C23.8808 27.1508 23.8808 26.9212 23.8043 26.6916ZM24.8758 25.5436C24.8758 24.8548 24.187 24.7783 23.9574 24.3191C23.7278 24.7783 23.5747 25.0844 23.3451 25.5436C23.8808 25.5436 24.34 25.5436 24.8758 25.5436ZM15.0795 25.5436C14.8499 25.1609 14.6969 24.7783 14.4673 24.3956C14.2377 24.6252 14.0846 24.7783 13.855 24.9313C13.6254 25.0844 13.3958 25.2375 13.5489 25.5436C14.1611 25.5436 14.6203 25.5436 15.0795 25.5436ZM14.2377 22.0996C14.2377 21.4873 14.2377 20.9516 14.2377 20.3393C13.7785 20.4159 13.5489 20.722 13.5489 21.1047C13.5489 21.5639 13.7785 21.9465 14.2377 22.0996ZM24.187 20.3393C24.187 20.9516 24.187 21.4873 24.187 22.0996C24.6462 22.0231 24.8758 21.6404 24.8758 21.2577C24.9523 20.7985 24.6462 20.4924 24.187 20.3393ZM6.58433 19.2679C6.20166 19.4209 6.0486 19.7271 6.0486 20.0332C6.0486 20.3393 6.20166 20.5689 6.58433 20.722C6.58433 20.2628 6.58433 19.8036 6.58433 19.2679ZM31.9168 20.722C32.2995 20.5689 32.4526 20.3393 32.4526 19.9567C32.4526 19.6505 32.2995 19.4209 31.9168 19.2679C31.9168 19.8036 31.9168 20.2628 31.9168 20.722Z" fill="white"/>
</svg>
