<svg width="39" height="39" viewBox="0 0 39 39" fill="none" xmlns="http://www.w3.org/2000/svg">
<g clip-path="url(#clip0_1525_19663)">
<path d="M2.54881 32.4544H19.6478V34.3543C19.6478 35.4032 20.4988 36.2542 21.5477 36.2542H24.0809C24.635 36.2542 25.1595 36.0068 25.5157 35.5912C25.5256 35.5912 25.5355 35.5912 25.5454 35.5813C26.0105 36.0167 26.6141 36.2542 27.2474 36.2542H34.8469C35.8958 36.2542 36.7468 35.4032 36.7468 34.3543C36.7468 34.0277 36.6578 33.7012 36.4895 33.4241C37.3504 32.8898 37.6374 31.7716 37.1228 30.8909C37.5978 30.5941 37.9145 30.0993 37.9936 29.5452C38.0728 28.991 37.8947 28.427 37.5186 28.0213C38.0233 27.4672 38.1519 26.6657 37.8452 25.9829C37.5384 25.3001 36.8557 24.8548 36.1036 24.8548H34.2037V5.22264C34.2037 3.82741 33.0658 2.68945 31.6705 2.68945H2.54881C1.15358 2.68945 0.015625 3.82741 0.015625 5.22264V29.9212C0.015625 31.3164 1.15358 32.4544 2.54881 32.4544ZM24.0809 34.9876H21.5477C21.2014 34.9876 20.9144 34.7006 20.9144 34.3543V28.6546C20.9144 28.3083 21.2014 28.0213 21.5477 28.0213H24.0809C24.4272 28.0213 24.7142 28.3083 24.7142 28.6546V34.3543C24.7142 34.7006 24.4272 34.9876 24.0809 34.9876ZM36.7468 26.7547C36.7468 27.1011 36.4599 27.388 36.1135 27.388H34.2136C33.8673 27.388 33.5803 27.675 33.5803 28.0213C33.5803 28.3676 33.8673 28.6546 34.2136 28.6546H36.1135C36.4599 28.6546 36.7468 28.9416 36.7468 29.2879C36.7468 29.6342 36.4599 29.9212 36.1135 29.9212H34.2136C33.8673 29.9212 33.5803 30.2082 33.5803 30.5545C33.5803 30.9008 33.8673 31.1878 34.2136 31.1878H35.4802C35.8266 31.1878 36.1135 31.4748 36.1135 31.8211C36.1135 32.1674 35.8266 32.4544 35.4802 32.4544H34.2136C33.8673 32.4544 33.5803 32.7414 33.5803 33.0877C33.5803 33.434 33.8673 33.721 34.2136 33.721H34.8469C35.1933 33.721 35.4802 34.0079 35.4802 34.3543C35.4802 34.7006 35.1933 34.9876 34.8469 34.9876H27.2474C26.5448 34.9876 25.9808 34.4235 25.9808 33.721V28.3874C26.7724 27.8927 27.3661 27.1307 27.663 26.2501C28.227 24.558 28.514 22.7867 28.514 21.0056C28.514 20.9165 28.5733 20.8472 28.6525 20.8176C28.8702 20.778 29.4342 20.679 29.9686 21.7279C30.2654 22.3315 30.4139 22.9945 30.404 23.6773V25.4881C30.404 25.8345 30.6909 26.1214 31.0373 26.1214H36.1036C36.4599 26.1214 36.7468 26.4084 36.7468 26.7547ZM31.6804 24.8548V23.6773C31.6903 22.8065 31.4924 21.9357 31.1065 21.154C30.4831 19.9369 29.5332 19.3729 28.4348 19.5708C27.7421 19.6994 27.2474 20.303 27.2474 21.0056C27.2474 22.6482 26.9802 24.2908 26.4656 25.8542C26.2677 26.4381 25.8818 26.9328 25.3673 27.2792C25.0209 26.9526 24.5559 26.7745 24.0809 26.7646H21.5477C20.4988 26.7646 19.6478 27.6156 19.6478 28.6645V31.1977H2.54881C1.84625 31.1977 1.28222 30.6337 1.28222 29.9311V9.02242H32.947V24.8548H31.6804ZM2.54881 3.95605H31.6804C32.383 3.95605 32.947 4.52008 32.947 5.22264V7.75582H1.28222V5.22264C1.28222 4.52008 1.84625 3.95605 2.54881 3.95605Z" fill="white"/>
<path fill-rule="evenodd" clip-rule="evenodd" d="M3.8155 5.85599C3.8155 6.20234 3.52852 6.48932 3.18216 6.48932C2.83581 6.48932 2.54883 6.20234 2.54883 5.85599C2.54883 5.50964 2.83581 5.22266 3.18216 5.22266C3.52852 5.22266 3.8155 5.50964 3.8155 5.85599Z" fill="white"/>
<path fill-rule="evenodd" clip-rule="evenodd" d="M6.3487 5.85599C6.3487 6.20234 6.06172 6.48932 5.71536 6.48932C5.36901 6.48932 5.08203 6.20234 5.08203 5.85599C5.08203 5.50964 5.36901 5.22266 5.71536 5.22266C6.06172 5.22266 6.3487 5.50964 6.3487 5.85599Z" fill="white"/>
<path fill-rule="evenodd" clip-rule="evenodd" d="M8.8819 5.85599C8.8819 6.20234 8.59492 6.48932 8.24857 6.48932C7.90221 6.48932 7.61523 6.20234 7.61523 5.85599C7.61523 5.50964 7.90221 5.22266 8.24857 5.22266C8.59492 5.22266 8.8819 5.50964 8.8819 5.85599Z" fill="white"/>
<path d="M5.08164 22.3219H15.215C16.2639 22.3219 17.115 21.4708 17.115 20.4219V12.8219C17.115 11.7729 16.2639 10.9219 15.215 10.9219H5.08164C4.03268 10.9219 3.18164 11.7729 3.18164 12.8219V20.4219C3.18164 21.4708 4.03268 22.3219 5.08164 22.3219ZM6.63529 21.0552L9.56445 16.4438L10.9697 18.2052L9.16862 21.0552H6.63529ZM15.215 21.0552H10.6728L14.0077 15.8104L15.8483 18.1161V20.4318C15.8483 20.7682 15.5613 21.0552 15.215 21.0552ZM4.44831 12.8219C4.44831 12.4755 4.73529 12.1885 5.08164 12.1885H15.215C15.5613 12.1885 15.8483 12.4755 15.8483 12.8219V16.0875L14.4431 14.326C14.3145 14.1677 14.1165 14.0786 13.9186 14.0885C13.7108 14.0984 13.5327 14.2073 13.4139 14.3854L11.702 17.0771L10.0098 14.9594C9.88112 14.801 9.6832 14.712 9.48529 14.7219C9.27747 14.7318 9.09935 14.8406 8.9806 15.0188L5.14102 21.0552H5.08164C4.73529 21.0552 4.44831 20.7682 4.44831 20.4219V12.8219Z" fill="white"/>
<path fill-rule="evenodd" clip-rule="evenodd" d="M6.98151 14.0884C6.98151 14.4348 6.69453 14.7217 6.34818 14.7217C6.00182 14.7217 5.71484 14.4348 5.71484 14.0884C5.71484 13.7421 6.00182 13.4551 6.34818 13.4551C6.69453 13.4551 6.98151 13.7421 6.98151 14.0884Z" fill="white"/>
<path fill-rule="evenodd" clip-rule="evenodd" d="M30.4137 11.5547H19.647C19.3007 11.5547 19.0137 11.8417 19.0137 12.188C19.0137 12.5344 19.3007 12.8214 19.647 12.8214H30.4137C30.76 12.8214 31.047 12.5344 31.047 12.188C31.047 11.8417 30.76 11.5547 30.4137 11.5547Z" fill="white"/>
<path fill-rule="evenodd" clip-rule="evenodd" d="M30.4137 14.0889H19.647C19.3007 14.0889 19.0137 14.3758 19.0137 14.7222C19.0137 15.0686 19.3007 15.3555 19.647 15.3555H30.4137C30.76 15.3555 31.047 15.0686 31.047 14.7222C31.047 14.3758 30.76 14.0889 30.4137 14.0889Z" fill="white"/>
<path fill-rule="evenodd" clip-rule="evenodd" d="M30.4137 16.6211H19.647C19.3007 16.6211 19.0137 16.9081 19.0137 17.2544C19.0137 17.6008 19.3007 17.8878 19.647 17.8878H30.4137C30.76 17.8878 31.047 17.6008 31.047 17.2544C31.047 16.9081 30.76 16.6211 30.4137 16.6211Z" fill="white"/>
<path fill-rule="evenodd" clip-rule="evenodd" d="M25.347 19.1553H19.647C19.3007 19.1553 19.0137 19.4423 19.0137 19.7886C19.0137 20.135 19.3007 20.4219 19.647 20.4219H25.347C25.6934 20.4219 25.9803 20.135 25.9803 19.7886C25.9803 19.4423 25.6934 19.1553 25.347 19.1553Z" fill="white"/>
<path fill-rule="evenodd" clip-rule="evenodd" d="M18.3816 24.8545H3.81497C3.46862 24.8545 3.18164 25.1415 3.18164 25.4878C3.18164 25.8342 3.46862 26.1212 3.81497 26.1212H18.3816C18.728 26.1212 19.015 25.8342 19.015 25.4878C19.015 25.1415 18.728 24.8545 18.3816 24.8545Z" fill="white"/>
<path fill-rule="evenodd" clip-rule="evenodd" d="M16.4816 27.3867H3.81497C3.46862 27.3867 3.18164 27.6737 3.18164 28.0201C3.18164 28.3664 3.46862 28.6534 3.81497 28.6534H16.4816C16.828 28.6534 17.115 28.3664 17.115 28.0201C17.115 27.6737 16.828 27.3867 16.4816 27.3867Z" fill="white"/>
</g>
<defs>
<clipPath id="clip0_1525_19663">
<rect width="37.9978" height="37.9978" fill="white" transform="translate(0.015625 0.313477)"/>
</clipPath>
</defs>
</svg>
