<svg xmlns="http://www.w3.org/2000/svg" xmlns:xlink="http://www.w3.org/1999/xlink"><defs>
<clipPath id="clip0_1525_19692">
<rect width="37.9978" height="37.9978" fill="white" transform="translate(0.978516 0.313477)"/>
</clipPath>

<clipPath id="clip0_1525_19663">
<rect width="37.9978" height="37.9978" fill="white" transform="translate(0.015625 0.313477)"/>
</clipPath>

<clipPath id="clip0_1525_19649">
<rect width="38" height="38" fill="white"/>
</clipPath>
</defs><symbol id="entry" viewBox="0 0 14 14">
<path d="M1.03796 9.11277C0.70199 9.24023 0.530118 9.61777 0.689997 9.93958C1.2603 11.0875 2.15479 12.0493 3.26905 12.7016C4.57122 13.4638 6.09508 13.7574 7.58723 13.5334C9.07938 13.3095 10.4499 12.5815 11.4709 11.4706C12.492 10.3596 13.1019 8.93266 13.1994 7.42695C13.297 5.92124 12.8761 4.42751 12.0069 3.19416C11.1377 1.9608 9.87252 1.06214 8.42171 0.647598C6.97091 0.233057 5.42192 0.327618 4.03231 0.915558C2.84323 1.41866 1.83216 2.25708 1.11856 3.32186C0.918507 3.62035 1.04025 4.01691 1.35697 4.18664C1.67369 4.35638 2.06493 4.23431 2.27213 3.94074C2.84024 3.13581 3.62413 2.5012 4.53936 2.11397C5.65526 1.64183 6.89916 1.5659 8.06421 1.89879C9.22926 2.23168 10.2453 2.95334 10.9433 3.94377C11.6413 4.9342 11.9792 6.13371 11.9009 7.34285C11.8226 8.552 11.3328 9.6979 10.5128 10.59C9.69293 11.4822 8.59234 12.0668 7.39409 12.2466C6.19584 12.4264 4.97212 12.1907 3.92643 11.5786C3.0688 11.0765 2.3733 10.3461 1.91376 9.47466C1.74615 9.15681 1.37392 8.9853 1.03796 9.11277Z" fill="white"/>
<path d="M0.826172 6.48302C0.540618 6.48302 0.309131 6.71451 0.309131 7.00006C0.309131 7.28561 0.540618 7.5171 0.826172 7.5171L0.826172 6.48302ZM9.45006 7.36566C9.65198 7.16375 9.65198 6.83638 9.45006 6.63446L6.15963 3.34403C5.95772 3.14212 5.63035 3.14212 5.42843 3.34403C5.22651 3.54595 5.22651 3.87332 5.42843 4.07524L8.35325 7.00006L5.42843 9.92488C5.22651 10.1268 5.22651 10.4542 5.42843 10.6561C5.63035 10.858 5.95772 10.858 6.15963 10.6561L9.45006 7.36566ZM0.826172 7.5171L9.08446 7.5171V6.48302L0.826172 6.48302L0.826172 7.5171Z" fill="white"/>
</symbol><symbol id="friends" viewBox="0 0 38 38">
<path d="M10.5641 37.3297C9.87526 37.0236 9.56913 36.5644 9.64566 35.7991C9.64566 35.4164 9.64566 34.9572 9.64566 34.5745C9.49259 34.5745 9.33953 34.5745 9.18646 34.5745C7.34966 34.5745 5.5894 34.5745 3.7526 34.5745C2.8342 34.5745 2.375 34.1153 2.375 33.1969C2.375 32.8143 2.375 32.4316 2.375 32.0489C2.375 31.6663 2.6046 31.4367 2.91073 31.4367C3.21687 31.4367 3.44647 31.6663 3.44647 32.0489C3.44647 32.4316 3.44647 32.8143 3.44647 33.1969C3.44647 33.35 3.523 33.4265 3.67607 33.4265C5.66593 33.4265 7.57926 33.4265 9.64566 33.4265C9.64566 32.202 9.64566 31.054 9.64566 29.906C8.19153 28.9876 7.73233 28.3753 7.50273 26.6916C6.58433 26.6916 5.66593 26.6151 4.82406 26.6916C4.05873 26.7681 3.523 27.61 3.44647 28.4519C3.44647 28.8345 3.44647 29.1407 3.44647 29.5233C3.44647 29.906 3.21687 30.1356 2.91073 30.1356C2.6046 30.1356 2.375 29.906 2.375 29.5233C2.375 29.1407 2.375 28.6815 2.375 28.2988C2.45153 27.3804 2.91073 26.6151 3.67607 26.0793C3.7526 26.0028 3.82913 26.0028 3.90567 25.9263C3.59953 24.9313 3.21687 24.0129 2.98727 23.0945C1.76273 18.1964 2.52807 13.6809 5.3598 9.47161C5.51286 9.24201 5.5894 9.08894 5.43633 8.78281C5.05366 8.01748 5.20673 7.09908 5.819 6.48681C6.43126 5.87455 7.27313 5.64495 8.115 6.02761C8.26806 6.18068 8.42113 6.10415 8.5742 5.95108C9.49259 5.33881 10.3345 4.72655 11.2529 4.11428C11.6355 3.88468 11.9417 3.96121 12.0947 4.26735C12.2478 4.57348 12.0947 4.80308 11.7886 5.03268C10.9467 5.64495 10.1049 6.18068 9.26299 6.79294C9.10993 6.86948 9.10993 7.02254 9.18646 7.17561C9.49259 7.94094 9.33953 8.70628 8.80379 9.24201C8.26806 9.85427 7.57926 10.0839 6.7374 9.85427C6.5078 9.77774 6.43126 9.85427 6.2782 10.0073C4.74753 12.2268 3.82913 14.6759 3.59953 17.4311C3.2934 20.1863 3.7526 22.7884 4.82406 25.314C4.9006 25.5436 5.05366 25.6201 5.3598 25.6201C6.43126 25.6201 7.50273 25.6201 8.49766 25.6201C8.57419 25.314 8.49766 25.1609 8.3446 25.0079C7.4262 24.2425 6.81393 23.3241 6.66086 22.1761C6.66086 21.9465 6.58433 21.87 6.35473 21.7935C4.97713 21.4108 4.51793 19.7271 5.51286 18.6556C5.5894 18.5791 5.66593 18.3495 5.66593 18.1964C5.66593 17.0484 5.66593 15.9769 5.66593 14.8289C5.66593 13.1452 6.7374 11.9207 8.26806 11.6145C8.49766 11.538 8.80379 11.538 9.03339 11.538C10.1814 11.538 11.3294 11.538 12.4774 11.538C13.2427 11.538 14.0081 11.7676 14.6203 12.3033C14.6969 12.3799 14.8499 12.3799 14.9265 12.3799C15.6153 12.0737 16.3041 11.9972 17.0694 11.9972C17.4521 11.9972 17.7582 11.9972 18.1409 11.9972C18.447 11.9972 18.6766 12.2268 18.7531 12.5329C18.7531 12.8391 18.5235 13.0687 18.1409 13.0687C17.6051 13.0687 17.0694 13.0687 16.5337 13.0687C15.1561 13.0687 14.0081 14.1401 13.9315 15.5177C13.855 16.6657 13.9315 17.8137 13.9315 18.9617C13.9315 19.0383 13.9315 19.0383 13.9315 19.1148C14.2377 19.1913 14.2377 19.0383 14.3142 18.8087C14.4673 17.9668 14.7734 17.2015 15.2326 16.5127C15.5387 16.13 15.6918 16.0535 16.151 16.2065C17.6051 16.6657 18.9827 17.0484 20.5134 17.2015C20.8961 17.2015 21.3552 17.2015 21.7379 17.1249C21.9675 17.0484 22.2737 16.8953 22.4267 16.7423C22.7329 16.4361 23.1155 16.4361 23.3451 16.8188C23.7278 17.4311 24.0339 18.1199 24.1104 18.8087C24.1104 18.9617 24.187 19.1913 24.4166 19.1148C24.4166 19.0383 24.4166 18.9617 24.4166 18.8852C24.4166 18.1199 24.4166 17.3545 24.4166 16.5892C24.4166 16.2065 24.34 15.9769 23.8808 15.9769C23.5747 15.9004 23.4216 15.6708 23.4216 15.3647C23.4216 14.7524 23.1921 14.2932 22.8094 13.834C22.3502 13.2983 21.7379 13.0687 21.1257 13.0687C20.8961 13.0687 20.6665 13.0687 20.5134 13.0687C20.2073 13.0687 19.9777 12.8391 19.9777 12.5329C19.9777 12.2268 20.2073 11.9972 20.5134 11.9972C21.3553 11.9207 22.1971 12.0737 22.8859 12.4564C23.6512 11.6911 24.5696 11.4615 25.5646 11.538C26.7126 11.538 27.784 11.538 28.932 11.538C30.3862 11.538 31.5342 12.4564 31.9168 13.834C31.9168 13.9105 31.9934 14.0636 32.1464 14.1401C32.6056 14.4463 32.8352 14.9055 32.8352 15.4412C32.8352 16.2831 32.8352 17.2015 32.8352 18.0433C32.8352 18.1964 32.9118 18.426 33.0648 18.5025C34.0598 19.574 33.6006 21.1812 32.223 21.6404C31.9934 21.7169 31.9934 21.7935 31.9168 21.9465C31.6872 23.0945 31.1515 24.0895 30.2331 24.8548C30.08 24.9313 30.08 25.1609 29.927 25.314L30.0035 25.3905C30.5392 25.3905 30.9984 25.3905 31.5342 25.3905C32.0699 25.3905 32.6822 25.3905 33.2179 25.3905C33.524 25.3905 33.6006 25.314 33.7536 25.0844C34.8251 22.5588 35.2078 19.9567 34.9782 17.278C34.7486 14.5993 33.8302 12.1503 32.376 9.93081C32.223 9.70121 32.0699 9.62467 31.8403 9.70121C31.075 9.93081 30.3862 9.70121 29.8504 9.08894C29.3147 8.47668 29.1616 7.78788 29.4678 7.02254C29.3912 7.02254 29.3147 6.86948 29.1616 6.71641C26.9422 4.95615 24.4166 3.80815 21.5849 3.34895C21.2787 3.27241 21.1257 3.34895 20.9726 3.65508C20.2073 5.03268 18.2174 4.95615 17.4521 3.65508C17.299 3.42548 17.1459 3.34895 16.9163 3.42548C15.9979 3.65508 15.0795 3.88468 14.1611 4.11428C14.0081 4.19081 13.7019 4.19081 13.5489 4.11428C13.3958 4.03775 13.2427 3.80815 13.3193 3.65508C13.3958 3.50201 13.5489 3.19588 13.7019 3.19588C14.6203 2.88975 15.4622 2.73668 16.3806 2.50708C16.4571 2.50708 16.4571 2.50708 16.5337 2.50708C16.9929 2.50708 17.2225 2.35402 17.3755 1.89482C17.7582 0.976416 18.447 0.59375 19.3654 0.59375C20.2073 0.670283 20.8961 1.05295 21.2022 1.89482C21.3553 2.20095 21.5083 2.27748 21.8144 2.35401C24.8758 2.81321 27.5544 3.96121 29.927 5.95108C30.1566 6.10415 30.3096 6.18068 30.6158 6.02761C31.3811 5.72148 32.2995 5.95108 32.8352 6.56334C33.371 7.17561 33.524 8.09401 33.1414 8.85934C33.0648 9.01241 32.9883 9.16548 33.1414 9.39508C36.5854 14.5228 37.0446 19.9567 34.7486 25.6967C34.7486 25.7732 34.672 25.8497 34.672 25.9263C34.8251 26.0028 34.9016 26.0793 35.0547 26.2324C35.82 26.8447 36.2027 27.61 36.2027 28.6049C36.2027 30.1356 36.2027 31.7428 36.2027 33.2735C36.2027 34.1919 35.7435 34.6511 34.8251 34.6511C32.9883 34.6511 31.228 34.6511 29.3912 34.6511C29.2382 34.6511 29.0851 34.6511 28.932 34.6511C28.932 35.1103 28.932 35.4929 28.932 35.8756C29.0086 36.6409 28.7024 37.1001 28.0136 37.4062C22.1206 37.3297 16.3806 37.3297 10.5641 37.3297ZM23.1155 28.6049C22.8859 31.054 21.0491 32.3551 19.2889 32.3551C18.3705 32.3551 17.6051 32.1255 16.9163 31.5132C15.9214 30.7479 15.4622 29.7529 15.3857 28.5284C14.5438 28.5284 13.7785 28.5284 12.9366 28.5284C11.559 28.5284 10.7171 29.3703 10.7171 30.7479C10.7171 32.4316 10.7171 34.1153 10.7171 35.7991C10.7171 36.1052 10.7937 36.2583 11.1763 36.2583C14.3142 36.2583 17.4521 36.2583 20.5899 36.2583C22.8859 36.2583 25.1819 36.2583 27.4779 36.2583C27.631 36.2583 27.8606 36.3348 27.8606 36.0287C27.8606 34.1919 27.8606 32.4316 27.8606 30.5948C27.8606 29.5999 27.0187 28.6815 26.1003 28.6815C25.0288 28.5284 24.1104 28.6049 23.1155 28.6049ZM22.8859 18.1199C20.4369 18.9617 18.2939 18.0433 16.0745 17.5076C15.9979 17.5841 15.9214 17.6607 15.9214 17.8137C15.5387 18.3495 15.3857 18.9617 15.3857 19.574C15.3857 20.8751 15.3091 22.1761 15.4622 23.4007C15.6918 25.3905 17.5286 26.8447 19.5185 26.6916C21.5083 26.5385 23.1155 24.9313 23.1155 22.9415C23.1155 21.7935 23.1155 20.6455 23.1155 19.4975C23.1155 19.0383 22.9624 18.5791 22.8859 18.1199ZM7.96193 16.9719C7.8854 17.4311 7.73233 17.8137 7.6558 18.1964C7.57926 19.3444 7.57926 20.5689 7.6558 21.7169C7.80886 23.7833 9.64566 25.1609 11.6355 24.8548C12.6305 24.7017 13.4723 24.0895 14.0081 23.2476C13.9315 23.2476 13.855 23.1711 13.855 23.1711C12.5539 22.6353 12.0947 21.4108 12.7835 20.1863C12.7835 20.1097 12.8601 20.1097 12.8601 20.0332C12.8601 19.2679 12.8601 18.5791 12.8601 17.8137C11.1763 17.8137 9.64566 17.4311 7.96193 16.9719ZM34.9782 33.5031C34.9782 31.7428 34.9782 30.0591 34.9782 28.3753C34.9782 27.61 34.3659 26.8447 33.6006 26.7681C32.6822 26.6916 31.8403 26.7681 30.9219 26.7681C30.6923 28.4519 30.2331 29.1407 28.779 29.9825C28.779 31.2071 28.779 32.3551 28.779 33.5031C30.9219 33.5031 32.9118 33.5031 34.9782 33.5031ZM24.4931 23.1711C24.4931 23.2476 24.5696 23.3241 24.5696 23.3241C25.335 24.4721 26.8656 25.0844 28.1667 24.7783C29.6208 24.3956 30.6923 23.2476 30.7688 21.7935C30.8454 20.722 30.8454 19.574 30.7688 18.5025C30.7688 18.1199 30.6158 17.6607 30.6158 17.278C28.8555 18.1199 27.2483 17.5841 25.5646 17.278C25.5646 18.0433 25.5646 18.8087 25.5646 19.574C25.5646 19.8036 25.6411 19.9567 25.7176 20.1097C26.2534 21.1812 25.8707 22.4823 24.7227 22.9415C24.6462 23.0945 24.5696 23.1711 24.4931 23.1711ZM23.8043 13.2217C24.0339 13.7575 24.2635 14.2932 24.4931 14.8289C24.5696 15.0585 24.6462 15.1351 24.7992 15.2881C25.0288 15.5177 25.2584 15.7473 25.488 16.0535C25.5646 16.13 25.7176 16.2831 25.7942 16.3596C26.3299 16.5127 26.7891 16.6657 27.3248 16.6657C28.0902 16.7423 28.779 16.7423 29.5443 16.6657C29.7739 16.6657 29.927 16.3596 30.08 16.2065C30.2331 16.0535 30.3862 15.8239 30.5392 15.8239C30.6923 15.8239 30.9219 15.9769 31.075 16.13C31.3046 16.4361 31.4576 16.7423 31.6107 17.1249C31.6107 16.5127 31.6107 15.9769 31.6107 15.5177C31.6107 15.4412 31.4576 15.2881 31.3811 15.2116C30.9984 15.1351 30.8454 14.9055 30.8454 14.5228C30.7688 13.5279 30.0035 12.7625 29.0086 12.7625C27.7075 12.7625 26.4064 12.7625 25.1054 12.7625C24.5696 12.686 24.1104 12.9156 23.8043 13.2217ZM6.81393 16.9719C6.967 16.7423 7.12006 16.5127 7.1966 16.2831C7.50273 15.8239 7.6558 15.7473 8.19153 15.9004C8.95686 16.13 9.72219 16.2831 10.4875 16.5127C11.2529 16.6657 12.0947 16.8188 12.9366 16.6657C12.8601 15.3647 13.0131 14.1401 13.9315 13.2217C13.5489 12.9156 13.1662 12.7625 12.707 12.7625C11.4059 12.7625 10.1814 12.7625 8.88033 12.7625C7.73233 12.7625 6.89046 13.5279 6.81393 14.6759C6.7374 15.3647 6.81393 16.2065 6.81393 16.9719ZM20.8195 27.5335C19.595 27.8396 19.2123 27.9161 17.6051 27.5335C17.8347 28.4519 17.299 28.6815 16.5337 28.5284C16.6102 30.0591 17.8347 31.2836 19.3654 31.2836C20.8961 31.2071 22.1206 29.9825 22.0441 28.6049C21.7379 28.5284 21.3553 28.5284 21.2022 28.3753C20.8961 28.2223 20.8961 27.8396 20.8195 27.5335ZM10.0283 28.9111C10.411 28.5284 10.7937 28.2223 11.1763 27.9161C11.7886 27.5335 12.4009 27.4569 13.1662 27.4569C13.3193 27.4569 13.4723 27.3804 13.4723 27.3039C13.5489 27.1508 13.5489 26.9212 13.6254 26.6151C12.9366 26.6916 12.4774 26.5385 12.5539 25.6967C11.559 26.0028 10.6406 26.0028 9.72219 25.7732C9.64566 26.0793 9.56913 26.3855 9.41606 26.5385C9.26299 26.6916 8.88033 26.6916 8.65073 26.7681C8.57419 27.61 9.18646 28.5284 10.0283 28.9111ZM25.9472 25.7732C25.7942 26.5385 25.7942 26.5385 24.9523 26.6916C24.8758 27.3804 24.9523 27.4569 25.6411 27.4569C26.483 27.4569 27.2483 27.6865 27.8606 28.2988C28.0902 28.4519 28.2432 28.6815 28.4728 28.9111C29.3912 28.5284 30.08 27.4569 29.927 26.6916C29.0851 26.6151 29.0086 26.6916 28.932 25.7732C27.8606 26.0793 26.9422 26.0028 25.9472 25.7732ZM7.27313 8.93588C7.80886 8.93588 8.26806 8.47668 8.26806 7.94094C8.26806 7.40521 7.80886 6.94601 7.34966 6.94601C6.81393 6.94601 6.35473 7.32868 6.35473 7.86441C6.2782 8.47668 6.7374 8.93588 7.27313 8.93588ZM19.2123 3.57855C19.7481 3.57855 20.2073 3.11935 20.2073 2.58361C20.2073 2.04788 19.7481 1.66522 19.2123 1.58868C18.6766 1.58868 18.2174 2.04788 18.2174 2.58361C18.2939 3.19588 18.6766 3.57855 19.2123 3.57855ZM31.228 8.93588C31.7638 8.93588 32.223 8.47668 32.223 7.94094C32.223 7.40521 31.8403 7.02254 31.3046 6.94601C30.7688 6.94601 30.3096 7.32868 30.3096 7.86441C30.2331 8.47668 30.6923 8.93588 31.228 8.93588ZM16.4571 27.4569C16.5337 26.9977 16.3806 26.6916 16.0745 26.6916C15.6153 26.6151 15.1561 26.6916 14.6203 26.6916C14.6203 26.9977 14.5438 27.2273 14.5438 27.4569C15.2326 27.4569 15.8449 27.4569 16.4571 27.4569ZM23.8043 26.6916C23.4216 26.6916 23.039 26.6916 22.6563 26.6916C22.1206 26.6916 21.891 26.9212 22.0441 27.4569C22.6563 27.4569 23.2686 27.4569 23.9574 27.4569C23.8808 27.1508 23.8808 26.9212 23.8043 26.6916ZM24.8758 25.5436C24.8758 24.8548 24.187 24.7783 23.9574 24.3191C23.7278 24.7783 23.5747 25.0844 23.3451 25.5436C23.8808 25.5436 24.34 25.5436 24.8758 25.5436ZM15.0795 25.5436C14.8499 25.1609 14.6969 24.7783 14.4673 24.3956C14.2377 24.6252 14.0846 24.7783 13.855 24.9313C13.6254 25.0844 13.3958 25.2375 13.5489 25.5436C14.1611 25.5436 14.6203 25.5436 15.0795 25.5436ZM14.2377 22.0996C14.2377 21.4873 14.2377 20.9516 14.2377 20.3393C13.7785 20.4159 13.5489 20.722 13.5489 21.1047C13.5489 21.5639 13.7785 21.9465 14.2377 22.0996ZM24.187 20.3393C24.187 20.9516 24.187 21.4873 24.187 22.0996C24.6462 22.0231 24.8758 21.6404 24.8758 21.2577C24.9523 20.7985 24.6462 20.4924 24.187 20.3393ZM6.58433 19.2679C6.20166 19.4209 6.0486 19.7271 6.0486 20.0332C6.0486 20.3393 6.20166 20.5689 6.58433 20.722C6.58433 20.2628 6.58433 19.8036 6.58433 19.2679ZM31.9168 20.722C32.2995 20.5689 32.4526 20.3393 32.4526 19.9567C32.4526 19.6505 32.2995 19.4209 31.9168 19.2679C31.9168 19.8036 31.9168 20.2628 31.9168 20.722Z" fill="white"/>
</symbol><symbol id="icons" viewBox="0 0 39 39">
<g clip-path="url(#clip0_1525_19692)">
<path d="M19.5523 38.258C18.8476 38.0954 18.1972 37.8786 17.7635 37.2823C17.4925 36.9029 17.2757 36.4151 17.0589 35.9814C16.9505 35.7646 16.8963 35.6562 16.6794 35.602C15.2701 35.331 13.8608 34.8431 12.5599 34.1926C10.5001 33.1628 8.71129 31.7534 7.24775 29.9647C7.08513 29.7478 6.92252 29.7478 6.7057 29.802C5.35057 30.2899 3.88703 29.6936 3.18237 28.4469C2.4777 27.146 2.74872 25.574 3.94124 24.7068C4.15806 24.5441 4.21226 24.3815 4.10385 24.1105C3.12816 20.9124 3.12816 17.6601 4.10385 14.462C4.15806 14.2452 4.15806 14.0826 3.94124 13.9199C2.74872 13.0527 2.42349 11.4807 3.12816 10.1798C3.83283 8.87886 5.29637 8.33681 6.7057 8.82466C6.97672 8.93307 7.08513 8.82466 7.24775 8.66204C8.71129 6.87327 10.5001 5.46394 12.5599 4.43404C13.8066 3.78358 15.1617 3.34994 16.5168 3.07891C16.8421 3.02471 17.0589 2.9163 17.1673 2.48266C17.3841 1.18173 18.6308 0.314453 19.986 0.314453C21.3411 0.314453 22.5336 1.29015 22.8046 2.59107C22.8588 2.9163 23.0214 3.02471 23.2925 3.07891C25.5149 3.51255 27.5205 4.37984 29.3634 5.68076C30.6102 6.54804 31.6943 7.52373 32.6157 8.66204C32.7784 8.87886 32.941 8.93307 33.212 8.82466C34.5129 8.33681 36.0307 8.93307 36.7353 10.1256C37.44 11.4265 37.169 12.9984 36.0307 13.8657C35.8138 14.0283 35.7596 14.191 35.8138 14.462C36.7895 17.6601 36.7895 20.9124 35.8138 24.1105C35.7596 24.3273 35.7596 24.4899 35.9765 24.6525C37.0606 25.4656 37.44 26.9834 36.8979 28.2301C36.3017 29.531 34.8924 30.2899 33.5914 29.9104C32.9952 29.7478 32.7242 29.9104 32.3447 30.3441C29.9597 33.0543 26.9242 34.7889 23.4009 35.5478C23.0756 35.602 22.8588 35.7646 22.8046 36.144C22.4794 37.2823 21.7205 37.9328 20.6364 38.258C20.528 38.258 20.4738 38.3122 20.3654 38.3122C20.0402 38.258 19.8233 38.258 19.5523 38.258ZM19.9317 10.9929C15.3785 10.9929 11.6384 14.733 11.6384 19.2862C11.6384 23.8395 15.3785 27.5796 19.9317 27.5796C24.485 27.5796 28.2251 23.8395 28.2251 19.2862C28.2251 14.733 24.485 10.9929 19.9317 10.9929ZM17.1131 4.16302C13.3729 4.86768 10.3374 6.71066 7.95242 9.63773C8.60288 10.4508 8.8197 11.3181 8.60288 12.2938C8.60288 12.4022 8.71129 12.5106 8.76549 12.5648C9.47016 12.9442 10.1748 13.3237 10.8795 13.7031C11.2047 13.8657 11.53 14.0826 11.8552 14.2452C13.8066 11.3723 16.4626 9.80035 19.9317 9.80035C23.4009 9.80035 26.0027 11.4265 27.9541 14.2452C28.8756 13.7573 29.7429 13.2695 30.6102 12.7816C31.0438 12.5648 31.3148 12.348 31.2064 11.7517C31.0438 10.9387 31.369 10.234 31.9111 9.58353C29.5261 6.65645 26.4906 4.81348 22.7504 4.10881C22.371 5.24712 21.6121 5.89758 20.4738 6.16861C20.4738 6.98168 20.4738 7.79476 20.4738 8.55363C20.0944 8.55363 19.7149 8.55363 19.2813 8.55363C19.2813 7.74055 19.2813 6.92748 19.2813 6.16861C18.2514 5.89758 17.4925 5.24712 17.1131 4.16302ZM7.95242 28.9348C10.3916 31.8618 13.3729 33.7048 17.1131 34.4095C17.4925 33.3254 18.2514 32.6207 19.3897 32.3497C19.3897 31.5366 19.3897 30.7235 19.3897 29.9647C19.8233 29.9647 20.1486 29.9647 20.5822 29.9647C20.5822 30.7777 20.5822 31.5908 20.5822 32.3497C21.7205 32.6207 22.4252 33.3254 22.8046 34.4095C26.5448 33.6506 29.5803 31.8618 31.9653 28.9348C31.2606 27.8507 31.2064 27.5254 31.3148 26.2787C31.3148 26.1703 31.2606 26.0619 31.2064 26.0077C30.1765 25.4114 29.0924 24.8694 28.0083 24.2731C26.0569 27.146 23.4009 28.7179 19.9317 28.7179C16.4626 28.7179 13.8066 27.0918 11.8552 24.2731C10.7711 24.8694 9.74118 25.4114 8.71129 26.0077C8.65708 26.0619 8.54867 26.1703 8.60288 26.2787C8.8197 27.3086 8.54867 28.1759 7.95242 28.9348ZM11.3131 23.2432C10.1748 20.5872 10.1748 17.9311 11.3131 15.2751C10.1748 14.6788 9.09072 14.0283 7.95242 13.4321C7.19354 14.2452 6.32626 14.5704 5.24216 14.462C4.26647 17.6601 4.26647 20.804 5.24216 24.0021C6.32626 23.8937 7.19354 24.2731 7.95242 25.032C9.09072 24.4899 10.1748 23.8937 11.3131 23.2432ZM31.9111 25.0862C32.6157 24.3815 33.4288 23.9479 34.4587 24.0021C34.5129 24.0021 34.6755 23.8395 34.7297 23.7853C35.2718 22.0507 35.4886 20.3161 35.3802 18.4732C35.326 17.118 35.1092 15.8171 34.6213 14.5162C33.5914 14.6246 32.7242 14.2994 32.0195 13.5947C31.9653 13.5405 31.8027 13.5405 31.6943 13.5947C31.2064 13.8657 30.7186 14.1368 30.2849 14.3536C29.7429 14.6788 29.1466 14.9498 28.6046 15.2751C29.7429 17.9311 29.7429 20.5872 28.6046 23.2432C29.6887 23.8937 30.7728 24.4899 31.9111 25.0862ZM19.9317 5.0303C20.9074 5.0303 21.7205 4.21722 21.7205 3.29573C21.7205 2.32004 20.9616 1.50697 19.986 1.50697C19.0103 1.50697 18.1972 2.32004 18.1972 3.29573C18.143 4.21722 18.9561 5.0303 19.9317 5.0303ZM7.46457 11.5891C7.46457 10.6134 6.65149 9.80035 5.6758 9.80035C4.70011 9.80035 3.88703 10.6134 3.88703 11.5891C3.88703 12.5648 4.70011 13.3237 5.6758 13.3237C6.7057 13.3237 7.46457 12.5106 7.46457 11.5891ZM35.9223 11.5891C35.9223 10.6134 35.1092 9.80035 34.1877 9.80035C33.212 9.80035 32.3989 10.5592 32.3989 11.5349C32.3989 12.5106 33.212 13.3237 34.1877 13.3237C35.1092 13.3779 35.9223 12.5648 35.9223 11.5891ZM7.46457 26.9834C7.46457 26.0077 6.65149 25.1946 5.6758 25.1946C4.70011 25.1946 3.88703 26.0077 3.88703 26.9834C3.88703 27.9591 4.70011 28.7721 5.6758 28.7721C6.7057 28.7721 7.46457 27.9591 7.46457 26.9834ZM35.9223 26.9834C35.9223 26.0077 35.1092 25.1946 34.1877 25.1946C33.212 25.1946 32.3989 25.9535 32.3989 26.9292C32.3989 27.9049 33.212 28.7179 34.1877 28.7179C35.1092 28.7721 35.9223 27.9591 35.9223 26.9834ZM19.9317 33.5422C18.9561 33.5422 18.143 34.3553 18.143 35.2768C18.143 36.2524 18.9561 37.0655 19.9317 37.0655C20.9074 37.0655 21.7205 36.2524 21.7205 35.2768C21.7205 34.3011 20.9074 33.5422 19.9317 33.5422Z" fill="white"/>
<path d="M18.035 18.5809C16.8966 17.551 16.734 16.3042 17.0593 14.949C17.3845 13.5395 18.7939 12.618 20.1491 12.7264C21.7212 12.889 22.7511 14.0816 22.8595 15.6537C22.9137 16.7378 22.6969 17.7136 21.7754 18.5267C21.938 18.6351 22.1006 18.7977 22.2632 18.9062C23.1306 19.4482 24.0521 19.9903 24.9195 20.4782C25.1363 20.5866 25.2447 20.7492 25.1905 21.0203C25.1905 21.5624 25.1905 22.1044 25.1905 22.5923C25.2447 23.297 24.8652 23.7849 24.269 24.0017C23.6727 24.2186 23.0222 24.3812 22.4259 24.4354C20.4744 24.598 18.4687 24.6522 16.5172 24.327C16.1919 24.2728 15.8667 24.1644 15.5414 24.0559C14.8909 23.7849 14.5115 23.297 14.5657 22.5923C14.5657 22.0502 14.5657 21.5082 14.5657 20.9661C14.5657 20.7492 14.6199 20.6408 14.7825 20.5324C15.704 19.9903 16.5714 19.4482 17.4929 18.9062C17.7097 18.8519 17.8724 18.7435 18.035 18.5809ZM19.607 23.4597C20.6912 23.4054 21.4501 23.4054 22.209 23.3512C22.6969 23.297 23.239 23.1886 23.7269 23.0802C23.9979 23.026 24.0521 22.8634 24.0521 22.5923C24.2147 21.725 23.8895 21.1287 23.0222 20.8034C22.9137 20.7492 22.8053 20.695 22.7511 20.6408C22.1006 20.2072 21.4501 19.7193 20.7996 19.2856C20.7454 19.2314 20.5828 19.2314 20.4744 19.2314C20.0407 19.2314 19.6612 19.2314 19.2276 19.2314C19.1192 19.2314 18.9565 19.2314 18.9023 19.2856C18.1976 20.0445 17.2761 20.4782 16.4088 20.9661C15.8667 21.2913 15.5956 21.6166 15.704 22.2671C15.7583 23.026 15.7583 23.026 16.463 23.2428C16.5172 23.2428 16.5172 23.2428 16.5714 23.2428C17.764 23.297 18.8481 23.4054 19.607 23.4597ZM18.1434 15.9789C18.1434 16.1415 18.1434 16.3042 18.1434 16.4668C18.1976 17.3883 18.9565 18.0388 19.8239 18.093C20.6912 18.1472 21.5043 17.551 21.6127 16.6836C21.667 16.1957 21.667 15.7079 21.5585 15.2742C21.2875 14.19 19.9865 13.648 19.0107 14.19C18.4145 14.5695 18.1434 15.22 18.1434 15.9789Z" fill="white"/>
<path d="M20.529 3.83759C20.1495 3.83759 19.7701 3.83759 19.3906 3.83759C19.3906 3.45813 19.3906 3.07868 19.3906 2.69922C19.7701 2.69922 20.1495 2.69922 20.529 2.69922C20.529 3.07868 20.529 3.45813 20.529 3.83759Z" fill="white"/>
<path d="M6.27119 12.1296C5.89173 12.1296 5.51227 12.1296 5.13281 12.1296C5.13281 11.7501 5.13281 11.3707 5.13281 10.9912C5.51227 10.9912 5.89173 10.9912 6.27119 10.9912C6.27119 11.3707 6.27119 11.7501 6.27119 12.1296Z" fill="white"/>
<path d="M34.7302 10.9912C34.7302 11.3707 34.7302 11.7501 34.7302 12.1296C34.3507 12.1296 33.9713 12.1296 33.5918 12.1296C33.5918 11.7501 33.5918 11.3707 33.5918 10.9912C33.9713 10.9912 34.3507 10.9912 34.7302 10.9912Z" fill="white"/>
<path d="M6.27119 27.5788C5.89173 27.5788 5.51227 27.5788 5.13281 27.5788C5.13281 27.1993 5.13281 26.8199 5.13281 26.4404C5.51227 26.4404 5.89173 26.4404 6.27119 26.4404C6.27119 26.8199 6.27119 27.1993 6.27119 27.5788Z" fill="white"/>
<path d="M34.7302 26.4404C34.7302 26.8199 34.7302 27.1993 34.7302 27.5788C34.3507 27.5788 33.9713 27.5788 33.5918 27.5788C33.5918 27.1993 33.5918 26.8199 33.5918 26.4404C33.9713 26.4404 34.3507 26.4404 34.7302 26.4404Z" fill="white"/>
<path d="M20.529 34.7344C20.529 35.1138 20.529 35.4933 20.529 35.8727C20.1495 35.8727 19.7701 35.8727 19.3906 35.8727C19.3906 35.4933 19.3906 35.1138 19.3906 34.7344C19.7701 34.7344 20.0953 34.7344 20.529 34.7344Z" fill="white"/>
</g>

</symbol><symbol id="money" viewBox="0 0 48 49">
<path d="M0 44.075C0 37.4 0 30.8 0 24.125C0.3 23.15 1.05 22.625 1.875 22.175C2.175 22.025 2.475 21.875 2.775 21.8C3.15 21.725 3.225 21.5 3.225 21.2C3.225 16.475 3.225 11.825 3.225 7.1C3.225 3.725 5.625 1.25 8.85 1.25C19.95 1.25 31.125 1.25 42.225 1.25C43.8 1.25 44.775 2.225 44.775 3.875C44.775 6.05 44.775 8.225 44.775 10.4C44.775 10.55 44.775 10.775 44.775 10.925C47.025 11.675 48 12.95 48 15.275C48 23 48 30.8 48 38.525C48 38.975 48 39.425 47.85 39.875C47.4 41.675 45.825 42.875 43.8 42.875C37.125 42.875 30.525 42.875 23.85 42.875C23.625 42.875 23.475 42.875 23.25 42.875C23.25 42.95 23.25 42.95 23.25 42.95C23.25 43.025 23.25 43.1 23.25 43.175C23.325 44.3 22.8 45.125 21.825 45.65C21 46.1 20.1 46.475 19.275 46.7C16.875 47.375 14.325 47.6 11.85 47.6C8.925 47.6 6 47.375 3.15 46.4C1.8 46.025 0.525 45.5 0 44.075ZM46.425 22.85C46.425 22.625 46.425 22.475 46.425 22.325C46.425 19.925 46.425 17.525 46.425 15.125C46.425 13.4 45.45 12.425 43.725 12.425C32.175 12.425 20.55 12.425 9 12.425C7.5 12.425 6.15 11.975 5.025 11C4.95 10.925 4.875 10.925 4.8 10.85C4.8 14.3 4.8 17.675 4.8 21.05C4.95 21.05 5.1 21.05 5.25 20.975C9.225 20.15 13.2 20.15 17.25 20.825C18.825 21.05 20.4 21.5 21.825 22.325C22.725 23 23.25 23.75 23.25 24.95C23.175 30.2 23.25 35.375 23.25 40.625C23.25 40.85 23.25 41 23.25 41.225C23.4 41.225 23.55 41.225 23.7 41.225C30.45 41.225 37.125 41.225 43.875 41.225C45.45 41.225 46.5 40.25 46.5 38.6C46.5 36.2 46.5 33.725 46.5 31.325C46.5 31.175 46.5 31.025 46.5 30.875C45.225 30.875 43.95 30.875 42.75 30.875C42.15 30.875 41.55 30.8 40.95 30.575C39.225 29.9 38.25 27.95 38.625 26.15C39 24.275 40.575 22.925 42.45 22.925C43.65 22.85 45 22.85 46.425 22.85ZM43.2 7.625C42.975 7.625 42.75 7.625 42.525 7.625C30.9 7.625 19.2 7.625 7.575 7.625C6.75 7.625 6.375 7.325 6.375 6.8C6.375 6.275 6.75 5.975 7.575 5.975C19.2 5.975 30.9 5.975 42.525 5.975C42.75 5.975 42.9 5.975 43.2 5.975C43.2 5.225 43.2 4.55 43.2 3.95C43.2 3.05 42.975 2.825 42.075 2.825C31.05 2.825 20.1 2.825 9.075 2.825C8.7 2.825 8.325 2.825 8.025 2.9C6 3.35 4.65 5.225 4.8 7.1C5.025 9.2 6.675 10.775 8.775 10.775C20.1 10.775 31.425 10.775 42.825 10.775C42.975 10.775 43.05 10.775 43.2 10.7C43.2 9.8 43.2 8.75 43.2 7.625ZM11.625 22.025C9.375 22.025 7.125 22.175 4.95 22.775C3.975 23.075 3 23.45 2.1 23.9C1.425 24.275 1.425 24.65 2.1 25.025C2.625 25.325 3.15 25.55 3.675 25.775C5.4 26.375 7.125 26.6 8.925 26.75C12.075 26.975 15.225 26.9 18.375 26.15C19.275 25.925 20.175 25.55 21.075 25.1C21.825 24.725 21.825 24.275 21.075 23.825C20.625 23.525 20.1 23.3 19.575 23.15C16.95 22.25 14.325 22.1 11.625 22.025ZM1.575 26.675C1.575 27.35 1.65 28.025 1.575 28.7C1.5 29.3 1.8 29.75 2.325 29.975C3.45 30.35 4.5 30.875 5.7 31.1C8.85 31.775 12 31.775 15.225 31.475C17.025 31.325 18.75 30.95 20.475 30.275C21.3 29.9 21.825 29.45 21.675 28.4C21.6 27.875 21.675 27.275 21.675 26.75C15.15 29.075 7.875 29.075 1.575 26.675ZM1.575 36.275C1.575 37.025 1.65 37.7 1.575 38.375C1.575 38.975 1.8 39.35 2.25 39.5C3.075 39.875 3.9 40.25 4.8 40.475C9 41.525 13.275 41.45 17.55 40.7C18.75 40.475 19.95 40.175 21 39.5C21.225 39.35 21.6 39.125 21.6 38.825C21.675 38 21.6 37.1 21.6 36.2C18.375 37.7 15 38 11.625 38C8.175 38.075 4.8 37.775 1.575 36.275ZM1.575 41.075C1.575 41.825 1.575 42.5 1.575 43.25C1.575 43.775 1.725 44.15 2.175 44.375C3 44.75 3.75 45.125 4.575 45.35C8.85 46.4 13.2 46.4 17.55 45.575C18.675 45.35 19.8 44.825 20.925 44.45C21.15 44.375 21.525 44.075 21.525 43.85C21.6 43.025 21.525 42.125 21.525 41.225C15.225 43.475 7.875 43.475 1.575 41.075ZM21.6 31.475C18.375 32.975 15 33.275 11.625 33.275C8.25 33.275 4.8 32.975 1.65 31.475C1.65 32.3 1.65 33.05 1.65 33.8C1.65 34.175 1.8 34.475 2.1 34.625C2.7 34.925 3.3 35.225 3.9 35.45C5.85 36.125 7.95 36.35 9.975 36.425C12.825 36.575 15.675 36.425 18.45 35.675C19.35 35.45 20.25 35 21.075 34.625C21.3 34.55 21.6 34.175 21.6 33.95C21.6 33.2 21.6 32.375 21.6 31.475ZM46.35 29.225C46.35 27.575 46.35 26 46.35 24.425C44.925 24.425 43.575 24.425 42.225 24.425C41.025 24.5 40.05 25.55 40.05 26.75C40.05 27.95 40.95 29.075 42.15 29.15C43.5 29.3 44.925 29.225 46.35 29.225Z" fill="#CF51CE"/>
<path d="M38.0263 15.6505C36.0763 15.6505 34.1263 15.6505 32.2513 15.6505C31.9513 15.6505 31.6513 15.5005 31.4263 15.3505C31.2763 15.2005 31.2013 14.7505 31.3513 14.6005C31.5013 14.3755 31.8013 14.1505 32.1013 14.1505C32.7013 14.0755 33.3013 14.1505 33.9013 14.1505C37.2013 14.1505 40.4263 14.1505 43.7263 14.1505C43.8763 14.1505 43.9513 14.1505 44.1013 14.1505C44.5513 14.2255 44.9263 14.5255 44.9263 14.9755C44.9263 15.4255 44.5513 15.7255 44.1013 15.7255C42.6763 15.7255 41.3263 15.7255 39.9013 15.7255C39.2263 15.6505 38.6263 15.6505 38.0263 15.6505Z" fill="#CF51CE"/>
<path d="M27.9734 15.6512C27.6734 15.6512 27.3734 15.6512 27.1484 15.6512C26.6984 15.6512 26.3984 15.3512 26.3984 14.9012C26.3984 14.4512 26.6984 14.0762 27.1484 14.0762C27.7484 14.0762 28.2734 14.0762 28.8734 14.0762C29.3234 14.0762 29.6234 14.4512 29.6234 14.9012C29.6234 15.3512 29.2484 15.6512 28.7984 15.6512C28.4984 15.6512 28.2734 15.6512 27.9734 15.6512Z" fill="#CF51CE"/>
<path d="M42.3738 27.65C41.9238 27.65 41.5488 27.275 41.5488 26.825C41.5488 26.375 41.9238 26 42.3738 26C42.8238 26 43.1238 26.375 43.1238 26.75C43.1988 27.275 42.8238 27.65 42.3738 27.65Z" fill="#CF51CE"/>
</symbol><symbol id="phone" viewBox="0 0 21 21">
<path d="M13.1004 14.5126L14.4466 13.1701C14.6279 12.9915 14.8573 12.8693 15.1069 12.8182C15.3566 12.7672 15.6157 12.7895 15.8528 12.8824L17.4935 13.5357C17.7331 13.6327 17.9386 13.7983 18.0841 14.0116C18.2295 14.225 18.3084 14.4764 18.3108 14.7344V17.7311C18.3094 17.9066 18.2724 18.08 18.202 18.2408C18.1317 18.4016 18.0294 18.5466 17.9014 18.667C17.7734 18.7874 17.6223 18.8807 17.4572 18.9413C17.292 19.0019 17.1163 19.0286 16.9406 19.0197C5.44416 18.3065 3.12444 8.59713 2.68574 4.88121C2.66537 4.69873 2.68398 4.51402 2.74033 4.33923C2.79669 4.16444 2.88951 4.00353 3.0127 3.86708C3.13589 3.73064 3.28665 3.62175 3.45507 3.54759C3.62348 3.47343 3.80573 3.43567 3.98983 3.43679H6.89248C7.1515 3.43756 7.40437 3.51559 7.61856 3.66084C7.83275 3.8061 7.99847 4.01194 8.09441 4.2519L8.74946 5.8881C8.84576 6.12368 8.87033 6.38234 8.8201 6.63177C8.76986 6.8812 8.64705 7.11034 8.467 7.29056L7.12085 8.63309C7.12085 8.63309 7.89609 13.8653 13.1004 14.5126Z" fill="#331A2F"/>
</symbol><symbol id="site" viewBox="0 0 39 39">
<g clip-path="url(#clip0_1525_19663)">
<path d="M2.54881 32.4544H19.6478V34.3543C19.6478 35.4032 20.4988 36.2542 21.5477 36.2542H24.0809C24.635 36.2542 25.1595 36.0068 25.5157 35.5912C25.5256 35.5912 25.5355 35.5912 25.5454 35.5813C26.0105 36.0167 26.6141 36.2542 27.2474 36.2542H34.8469C35.8958 36.2542 36.7468 35.4032 36.7468 34.3543C36.7468 34.0277 36.6578 33.7012 36.4895 33.4241C37.3504 32.8898 37.6374 31.7716 37.1228 30.8909C37.5978 30.5941 37.9145 30.0993 37.9936 29.5452C38.0728 28.991 37.8947 28.427 37.5186 28.0213C38.0233 27.4672 38.1519 26.6657 37.8452 25.9829C37.5384 25.3001 36.8557 24.8548 36.1036 24.8548H34.2037V5.22264C34.2037 3.82741 33.0658 2.68945 31.6705 2.68945H2.54881C1.15358 2.68945 0.015625 3.82741 0.015625 5.22264V29.9212C0.015625 31.3164 1.15358 32.4544 2.54881 32.4544ZM24.0809 34.9876H21.5477C21.2014 34.9876 20.9144 34.7006 20.9144 34.3543V28.6546C20.9144 28.3083 21.2014 28.0213 21.5477 28.0213H24.0809C24.4272 28.0213 24.7142 28.3083 24.7142 28.6546V34.3543C24.7142 34.7006 24.4272 34.9876 24.0809 34.9876ZM36.7468 26.7547C36.7468 27.1011 36.4599 27.388 36.1135 27.388H34.2136C33.8673 27.388 33.5803 27.675 33.5803 28.0213C33.5803 28.3676 33.8673 28.6546 34.2136 28.6546H36.1135C36.4599 28.6546 36.7468 28.9416 36.7468 29.2879C36.7468 29.6342 36.4599 29.9212 36.1135 29.9212H34.2136C33.8673 29.9212 33.5803 30.2082 33.5803 30.5545C33.5803 30.9008 33.8673 31.1878 34.2136 31.1878H35.4802C35.8266 31.1878 36.1135 31.4748 36.1135 31.8211C36.1135 32.1674 35.8266 32.4544 35.4802 32.4544H34.2136C33.8673 32.4544 33.5803 32.7414 33.5803 33.0877C33.5803 33.434 33.8673 33.721 34.2136 33.721H34.8469C35.1933 33.721 35.4802 34.0079 35.4802 34.3543C35.4802 34.7006 35.1933 34.9876 34.8469 34.9876H27.2474C26.5448 34.9876 25.9808 34.4235 25.9808 33.721V28.3874C26.7724 27.8927 27.3661 27.1307 27.663 26.2501C28.227 24.558 28.514 22.7867 28.514 21.0056C28.514 20.9165 28.5733 20.8472 28.6525 20.8176C28.8702 20.778 29.4342 20.679 29.9686 21.7279C30.2654 22.3315 30.4139 22.9945 30.404 23.6773V25.4881C30.404 25.8345 30.6909 26.1214 31.0373 26.1214H36.1036C36.4599 26.1214 36.7468 26.4084 36.7468 26.7547ZM31.6804 24.8548V23.6773C31.6903 22.8065 31.4924 21.9357 31.1065 21.154C30.4831 19.9369 29.5332 19.3729 28.4348 19.5708C27.7421 19.6994 27.2474 20.303 27.2474 21.0056C27.2474 22.6482 26.9802 24.2908 26.4656 25.8542C26.2677 26.4381 25.8818 26.9328 25.3673 27.2792C25.0209 26.9526 24.5559 26.7745 24.0809 26.7646H21.5477C20.4988 26.7646 19.6478 27.6156 19.6478 28.6645V31.1977H2.54881C1.84625 31.1977 1.28222 30.6337 1.28222 29.9311V9.02242H32.947V24.8548H31.6804ZM2.54881 3.95605H31.6804C32.383 3.95605 32.947 4.52008 32.947 5.22264V7.75582H1.28222V5.22264C1.28222 4.52008 1.84625 3.95605 2.54881 3.95605Z" fill="white"/>
<path fill-rule="evenodd" clip-rule="evenodd" d="M3.8155 5.85599C3.8155 6.20234 3.52852 6.48932 3.18216 6.48932C2.83581 6.48932 2.54883 6.20234 2.54883 5.85599C2.54883 5.50964 2.83581 5.22266 3.18216 5.22266C3.52852 5.22266 3.8155 5.50964 3.8155 5.85599Z" fill="white"/>
<path fill-rule="evenodd" clip-rule="evenodd" d="M6.3487 5.85599C6.3487 6.20234 6.06172 6.48932 5.71536 6.48932C5.36901 6.48932 5.08203 6.20234 5.08203 5.85599C5.08203 5.50964 5.36901 5.22266 5.71536 5.22266C6.06172 5.22266 6.3487 5.50964 6.3487 5.85599Z" fill="white"/>
<path fill-rule="evenodd" clip-rule="evenodd" d="M8.8819 5.85599C8.8819 6.20234 8.59492 6.48932 8.24857 6.48932C7.90221 6.48932 7.61523 6.20234 7.61523 5.85599C7.61523 5.50964 7.90221 5.22266 8.24857 5.22266C8.59492 5.22266 8.8819 5.50964 8.8819 5.85599Z" fill="white"/>
<path d="M5.08164 22.3219H15.215C16.2639 22.3219 17.115 21.4708 17.115 20.4219V12.8219C17.115 11.7729 16.2639 10.9219 15.215 10.9219H5.08164C4.03268 10.9219 3.18164 11.7729 3.18164 12.8219V20.4219C3.18164 21.4708 4.03268 22.3219 5.08164 22.3219ZM6.63529 21.0552L9.56445 16.4438L10.9697 18.2052L9.16862 21.0552H6.63529ZM15.215 21.0552H10.6728L14.0077 15.8104L15.8483 18.1161V20.4318C15.8483 20.7682 15.5613 21.0552 15.215 21.0552ZM4.44831 12.8219C4.44831 12.4755 4.73529 12.1885 5.08164 12.1885H15.215C15.5613 12.1885 15.8483 12.4755 15.8483 12.8219V16.0875L14.4431 14.326C14.3145 14.1677 14.1165 14.0786 13.9186 14.0885C13.7108 14.0984 13.5327 14.2073 13.4139 14.3854L11.702 17.0771L10.0098 14.9594C9.88112 14.801 9.6832 14.712 9.48529 14.7219C9.27747 14.7318 9.09935 14.8406 8.9806 15.0188L5.14102 21.0552H5.08164C4.73529 21.0552 4.44831 20.7682 4.44831 20.4219V12.8219Z" fill="white"/>
<path fill-rule="evenodd" clip-rule="evenodd" d="M6.98151 14.0884C6.98151 14.4348 6.69453 14.7217 6.34818 14.7217C6.00182 14.7217 5.71484 14.4348 5.71484 14.0884C5.71484 13.7421 6.00182 13.4551 6.34818 13.4551C6.69453 13.4551 6.98151 13.7421 6.98151 14.0884Z" fill="white"/>
<path fill-rule="evenodd" clip-rule="evenodd" d="M30.4137 11.5547H19.647C19.3007 11.5547 19.0137 11.8417 19.0137 12.188C19.0137 12.5344 19.3007 12.8214 19.647 12.8214H30.4137C30.76 12.8214 31.047 12.5344 31.047 12.188C31.047 11.8417 30.76 11.5547 30.4137 11.5547Z" fill="white"/>
<path fill-rule="evenodd" clip-rule="evenodd" d="M30.4137 14.0889H19.647C19.3007 14.0889 19.0137 14.3758 19.0137 14.7222C19.0137 15.0686 19.3007 15.3555 19.647 15.3555H30.4137C30.76 15.3555 31.047 15.0686 31.047 14.7222C31.047 14.3758 30.76 14.0889 30.4137 14.0889Z" fill="white"/>
<path fill-rule="evenodd" clip-rule="evenodd" d="M30.4137 16.6211H19.647C19.3007 16.6211 19.0137 16.9081 19.0137 17.2544C19.0137 17.6008 19.3007 17.8878 19.647 17.8878H30.4137C30.76 17.8878 31.047 17.6008 31.047 17.2544C31.047 16.9081 30.76 16.6211 30.4137 16.6211Z" fill="white"/>
<path fill-rule="evenodd" clip-rule="evenodd" d="M25.347 19.1553H19.647C19.3007 19.1553 19.0137 19.4423 19.0137 19.7886C19.0137 20.135 19.3007 20.4219 19.647 20.4219H25.347C25.6934 20.4219 25.9803 20.135 25.9803 19.7886C25.9803 19.4423 25.6934 19.1553 25.347 19.1553Z" fill="white"/>
<path fill-rule="evenodd" clip-rule="evenodd" d="M18.3816 24.8545H3.81497C3.46862 24.8545 3.18164 25.1415 3.18164 25.4878C3.18164 25.8342 3.46862 26.1212 3.81497 26.1212H18.3816C18.728 26.1212 19.015 25.8342 19.015 25.4878C19.015 25.1415 18.728 24.8545 18.3816 24.8545Z" fill="white"/>
<path fill-rule="evenodd" clip-rule="evenodd" d="M16.4816 27.3867H3.81497C3.46862 27.3867 3.18164 27.6737 3.18164 28.0201C3.18164 28.3664 3.46862 28.6534 3.81497 28.6534H16.4816C16.828 28.6534 17.115 28.3664 17.115 28.0201C17.115 27.6737 16.828 27.3867 16.4816 27.3867Z" fill="white"/>
</g>

</symbol><symbol id="target" viewBox="0 0 38 38">
<g clip-path="url(#clip0_1525_19649)">
<path d="M27.6098 11.5188C26.5411 12.5875 25.4723 13.6562 24.3442 14.7844C25.6504 16.5063 26.1254 18.4656 25.6504 20.6031C25.2348 22.2656 24.2848 23.6313 22.8598 24.5813C20.0692 26.5406 16.3286 26.125 14.0129 23.6313C11.6379 21.0781 11.5192 17.3375 13.7754 14.6656C15.7942 12.2313 19.7129 11.0437 23.2161 13.5969C24.2848 12.5281 25.3536 11.4594 26.4223 10.3313C24.5223 8.72812 22.3254 7.77813 19.7129 7.6C19.7129 8.3125 19.7129 8.96562 19.7129 9.67812C19.7129 10.2719 19.4161 10.6281 18.9411 10.6281C18.4661 10.6281 18.1692 10.2719 18.1692 9.67812C18.1692 8.13437 18.1692 6.65 18.1692 5.10625C18.1692 4.92813 18.1692 4.75 18.1692 4.57188C16.6848 4.63125 15.2598 4.92812 13.8942 5.4625C9.14419 7.3625 6.11606 10.8063 4.86918 15.7937C4.86918 15.9125 4.80981 15.9719 4.80981 16.0906C4.69106 16.5063 4.33481 16.7437 3.91918 16.6844C3.50356 16.5656 3.26606 16.2094 3.32543 15.7344C3.74106 13.5969 4.57231 11.6375 5.81919 9.91563C8.78794 5.9375 12.6473 3.62188 17.5754 3.14688C17.7536 3.14688 17.9911 3.0875 18.2286 3.0875C18.2286 2.43437 18.2286 1.72187 18.2286 1.06875C18.2286 0.35625 18.4661 0 19.0004 0C19.4754 0 19.7723 0.35625 19.7723 1.00937C19.7723 2.55312 19.7723 4.0375 19.7723 5.58125C19.7723 5.75937 19.7723 5.9375 19.7723 6.11562C22.7411 6.35313 25.3536 7.42188 27.5504 9.32187C27.9067 8.96562 28.2036 8.60938 28.6192 8.19375C27.8473 7.65938 27.1348 7.06563 26.3036 6.59063C24.9973 5.81875 23.6317 5.225 22.1473 4.92812C22.0286 4.92812 21.9098 4.86875 21.8504 4.86875C21.4348 4.75 21.1973 4.33437 21.3161 3.91875C21.4348 3.50312 21.7911 3.26562 22.2661 3.38437C24.1661 3.74062 25.8879 4.45312 27.4911 5.52187C28.2629 6.05625 28.9754 6.59062 29.8661 7.24375C29.9254 7.00625 30.1036 6.82812 30.1036 6.65C30.1036 5.81875 30.1036 5.04688 30.1036 4.21562C30.1036 3.91875 30.2223 3.5625 30.4598 3.38437C31.4098 2.375 32.4192 1.36563 33.4286 0.35625C33.7254 0.059375 34.0223 -0.059375 34.3786 0.11875C34.7348 0.2375 34.8536 0.59375 34.8536 0.95C34.8536 1.72187 34.8536 2.43438 34.8536 3.26562C35.6254 3.26562 36.3973 3.26562 37.1692 3.26562C37.5848 3.26562 37.8817 3.38438 38.0598 3.74063C38.1786 4.15625 38.0598 4.45312 37.7629 4.69063C36.7536 5.64062 35.8036 6.65 34.8536 7.6C34.6161 7.8375 34.2598 7.95625 33.9629 7.95625C33.1911 8.01562 32.3598 7.95625 31.5879 7.95625C31.4098 7.95625 31.1723 8.13438 30.9348 8.19375C32.2411 9.67813 33.1911 11.1625 33.9036 12.8844C34.6161 14.6063 34.9723 16.3281 35.0911 18.2281C35.8036 18.2281 36.5161 18.2281 37.1692 18.2281C37.7629 18.2281 38.1192 18.525 38.1192 19C38.1192 19.475 37.7629 19.7719 37.1692 19.7719C35.6254 19.7719 34.0817 19.7719 32.5379 19.7719C32.3598 19.7719 32.1817 19.7719 32.1223 19.7719C31.7661 21.0781 31.5879 22.3844 31.1129 23.5719C29.5692 27.55 26.7192 30.1625 22.6223 31.4094C22.5036 31.4094 22.4442 31.4688 22.3254 31.4688C21.8504 31.5875 21.4942 31.35 21.3754 30.9344C21.2567 30.5187 21.4942 30.1625 21.9692 29.9844C22.2661 29.8656 22.5629 29.8062 22.8004 29.6875C27.3129 27.9656 29.8661 24.6406 30.4004 19.8906C30.4004 19.8312 30.4004 19.8313 30.4004 19.7125C29.7473 19.7125 29.0348 19.7125 28.3817 19.7125C27.7879 19.7125 27.4317 19.4156 27.4317 18.9406C27.4317 18.4656 27.7879 18.1688 28.3817 18.1688C29.9254 18.1688 31.4098 18.1688 32.9536 18.1688C33.1317 18.1688 33.3098 18.1688 33.4879 18.1688C33.2504 14.7844 32.0629 11.8156 29.8661 9.32187C29.5098 9.67812 29.1536 10.0344 28.7973 10.3906C28.8567 10.45 28.9161 10.5688 29.0348 10.6875C30.1629 12.0531 30.9942 13.5969 31.4692 15.3187C31.7067 16.0312 31.5286 16.4469 31.0536 16.625C30.5786 16.7437 30.2223 16.4469 30.0442 15.7937C29.4504 14.25 28.6786 12.825 27.6098 11.5188ZM22.0879 14.7844C20.3067 13.3 17.2192 13.1812 15.1411 15.3187C13.1223 17.4562 13.1223 20.6031 15.2004 22.6812C17.2786 24.7594 20.4848 24.8188 22.5629 22.8C24.7004 20.7812 24.7004 17.6938 23.1567 15.7937C22.8598 16.0906 22.6223 16.3281 22.3254 16.625C22.0879 16.8031 22.1473 16.9813 22.2661 17.2188C22.6817 18.05 22.8598 18.8813 22.6223 19.7719C22.1473 21.85 20.0098 23.1562 17.9911 22.6219C15.9129 22.0875 14.6661 19.8906 15.2598 17.8719C15.9129 15.7937 18.1098 14.5469 20.0692 15.3781C20.9004 15.7344 21.3754 15.4969 21.7911 14.9031C21.9692 14.9031 22.0286 14.8438 22.0879 14.7844ZM21.0192 17.9906C20.4848 18.525 20.0098 19.0594 19.5348 19.5344C19.2379 19.8313 18.8223 19.8313 18.5254 19.5344C18.2286 19.2375 18.1692 18.8813 18.4067 18.525C18.5254 18.4062 18.6442 18.2875 18.7629 18.1688C19.1786 17.7531 19.5942 17.3375 20.0098 16.9219C18.8817 16.4469 17.7536 16.8031 17.1598 17.6938C16.5661 18.5844 16.6848 19.7719 17.4567 20.5437C18.2286 21.3156 19.3567 21.4344 20.3067 20.8406C21.1379 20.2469 21.4942 19.1187 21.0192 17.9906ZM31.5879 6.4125C32.2411 6.4125 32.8348 6.4125 33.4286 6.4125C33.5473 6.4125 33.7254 6.4125 33.7848 6.35313C34.2598 5.87812 34.7942 5.34375 35.3879 4.75C34.8536 4.75 34.4379 4.75 34.0817 4.75C33.5473 4.75 33.2504 4.45312 33.2504 3.91875C33.2504 3.50312 33.2504 3.0875 33.2504 2.55313C32.6567 3.14688 32.1817 3.62188 31.7067 4.09688C31.6473 4.15625 31.5879 4.275 31.5879 4.39375C31.5286 5.10625 31.5879 5.7 31.5879 6.4125Z" fill="white"/>
<path d="M2.96953 19.7717C2.31641 19.7717 1.60391 19.7717 0.891406 19.7717C0.297656 19.7717 -0.0585938 19.4749 -0.0585938 18.9999C-0.0585938 18.5249 0.297656 18.2874 0.832031 18.228C2.55391 18.228 4.21641 18.228 5.93828 18.228C6.17578 17.2186 6.29453 16.2686 6.59141 15.3186C6.82891 14.5467 7.18516 13.7749 7.48203 13.0624C7.71953 12.5874 8.13516 12.4092 8.55078 12.6467C8.96641 12.8842 9.08516 13.2999 8.78828 13.7749C8.07578 15.1999 7.60078 16.6842 7.54141 18.2874C8.19453 18.2874 8.78828 18.2874 9.44141 18.2874C10.1539 18.2874 10.5102 18.5249 10.5695 19.0592C10.5695 19.5936 10.2133 19.8311 9.44141 19.8311C7.95703 19.8311 6.53203 19.8311 5.04766 19.8311C4.86953 19.8311 4.69141 19.8311 4.51328 19.8311C4.57266 21.078 4.75078 22.2655 5.16641 23.3936C6.94766 28.5592 10.4508 31.8249 15.7352 33.1311C15.9133 33.1905 16.1508 33.2499 16.3289 33.3686C16.6258 33.6061 16.7445 33.903 16.5664 34.2592C16.3883 34.6155 16.0914 34.7936 15.6758 34.7342C13.8352 34.3186 12.0539 33.6655 10.4508 32.6561C6.17578 29.6874 3.68203 25.6499 3.08828 20.4249C3.08828 20.2467 3.02891 20.0686 3.02891 19.8905C3.02891 19.8905 3.02891 19.8311 2.96953 19.7717Z" fill="white"/>
<path d="M19.7727 34.9723C19.7727 35.6848 19.7727 36.3379 19.7727 37.0504C19.7727 37.6441 19.4758 38.0004 19.0008 38.0004C18.5258 38.0004 18.2289 37.6441 18.2289 37.0504C18.2289 35.5066 18.2289 33.9629 18.2289 32.4191C18.2289 32.241 18.2289 32.0629 18.2289 31.9441C17.457 31.8254 16.7445 31.7066 16.032 31.5285C11.2227 30.2816 8.07578 27.3129 6.59141 22.5629C6.53203 22.3848 6.47266 22.266 6.47266 22.0879C6.47266 21.6723 6.65078 21.4348 7.00703 21.316C7.36328 21.1973 7.71953 21.316 7.89766 21.6723C7.95703 21.8504 8.01641 22.0285 8.07578 22.2066C9.38203 26.7191 13.5977 30.1629 18.2289 30.341C18.2289 29.6879 18.2289 28.9754 18.2289 28.3223C18.2289 27.7285 18.5258 27.3723 18.9414 27.3723C19.4164 27.3723 19.7133 27.7285 19.7133 28.3223C19.7133 29.8066 19.7133 31.3504 19.7133 32.8348C19.7133 33.0129 19.7133 33.191 19.7133 33.4879C20.6633 33.3098 21.6133 33.191 22.5039 33.0129C24.107 32.6566 25.532 32.0035 26.8977 31.1129C27.0164 31.0535 27.1352 30.9348 27.2539 30.8754C27.6102 30.7566 27.907 30.816 28.1445 31.1129C28.382 31.4098 28.3227 31.766 28.0852 32.0035C27.9664 32.1223 27.7883 32.241 27.6102 32.3598C25.2945 33.8441 22.7414 34.6754 20.0102 34.9129C20.0102 34.9129 19.8914 34.9723 19.7727 34.9723Z" fill="white"/>
<path d="M31.9437 27.9654C31.1719 27.9654 30.875 27.3717 31.1719 26.7185C31.7062 25.6498 32.2406 24.5217 32.7156 23.3935C32.8937 22.9185 33.0125 22.3842 33.1312 21.9092C33.25 21.4342 33.6062 21.1967 34.0219 21.256C34.4375 21.3748 34.675 21.731 34.6156 22.2654C34.2594 24.1654 33.5469 25.8873 32.4781 27.4904C32.3 27.7279 32.0625 27.906 31.9437 27.9654Z" fill="white"/>
<path d="M12.1727 9.67773C11.9946 9.49961 11.6977 9.32148 11.5789 9.02461C11.4008 8.66836 11.6383 8.37148 11.9352 8.13398C13.0633 7.42148 14.3102 6.82773 15.6164 6.53086C16.0321 6.41211 16.3289 6.53086 16.5071 6.88711C16.7446 7.30273 16.5664 7.83711 16.0914 8.01523C14.8446 8.37148 13.7164 8.84648 12.6477 9.55898C12.5883 9.55898 12.4696 9.55898 12.1727 9.67773Z" fill="white"/>
<path d="M10.8066 10.8061C10.8066 11.2217 10.4504 11.5186 10.0348 11.5186C9.61914 11.5186 9.32227 11.1623 9.32227 10.7467C9.32227 10.3311 9.67852 10.0342 10.0941 10.0342C10.4504 10.0342 10.8066 10.3904 10.8066 10.8061Z" fill="white"/>
<path d="M30.6375 29.5689C30.6375 29.9846 30.2812 30.3408 29.8656 30.3408C29.45 30.3408 29.0938 30.0439 29.0938 29.6283C29.0938 29.2127 29.3906 28.8564 29.8062 28.8564C30.2812 28.8564 30.6375 29.1533 30.6375 29.5689Z" fill="white"/>
</g>

</symbol><symbol id="triangle" viewBox="0 0 11 9">
<path d="M6.46871 8.43439C6.04061 9.11226 5.05207 9.11225 4.62397 8.43439L0.934642 2.59259C0.475889 1.86619 0.997874 0.919172 1.85701 0.919172L9.23567 0.919173C10.0948 0.919173 10.6168 1.86619 10.158 2.59259L6.46871 8.43439Z" fill="#331A2F" fill-opacity="0.9"/>
</symbol></svg>