<svg width="14" height="14" viewBox="0 0 14 14" fill="none" xmlns="http://www.w3.org/2000/svg">
<path d="M1.03796 9.11277C0.70199 9.24023 0.530118 9.61777 0.689997 9.93958C1.2603 11.0875 2.15479 12.0493 3.26905 12.7016C4.57122 13.4638 6.09508 13.7574 7.58723 13.5334C9.07938 13.3095 10.4499 12.5815 11.4709 11.4706C12.492 10.3596 13.1019 8.93266 13.1994 7.42695C13.297 5.92124 12.8761 4.42751 12.0069 3.19416C11.1377 1.9608 9.87252 1.06214 8.42171 0.647598C6.97091 0.233057 5.42192 0.327618 4.03231 0.915558C2.84323 1.41866 1.83216 2.25708 1.11856 3.32186C0.918507 3.62035 1.04025 4.01691 1.35697 4.18664C1.67369 4.35638 2.06493 4.23431 2.27213 3.94074C2.84024 3.13581 3.62413 2.5012 4.53936 2.11397C5.65526 1.64183 6.89916 1.5659 8.06421 1.89879C9.22926 2.23168 10.2453 2.95334 10.9433 3.94377C11.6413 4.9342 11.9792 6.13371 11.9009 7.34285C11.8226 8.552 11.3328 9.6979 10.5128 10.59C9.69293 11.4822 8.59234 12.0668 7.39409 12.2466C6.19584 12.4264 4.97212 12.1907 3.92643 11.5786C3.0688 11.0765 2.3733 10.3461 1.91376 9.47466C1.74615 9.15681 1.37392 8.9853 1.03796 9.11277Z" fill="white"/>
<path d="M0.826172 6.48302C0.540618 6.48302 0.309131 6.71451 0.309131 7.00006C0.309131 7.28561 0.540618 7.5171 0.826172 7.5171L0.826172 6.48302ZM9.45006 7.36566C9.65198 7.16375 9.65198 6.83638 9.45006 6.63446L6.15963 3.34403C5.95772 3.14212 5.63035 3.14212 5.42843 3.34403C5.22651 3.54595 5.22651 3.87332 5.42843 4.07524L8.35325 7.00006L5.42843 9.92488C5.22651 10.1268 5.22651 10.4542 5.42843 10.6561C5.63035 10.858 5.95772 10.858 6.15963 10.6561L9.45006 7.36566ZM0.826172 7.5171L9.08446 7.5171V6.48302L0.826172 6.48302L0.826172 7.5171Z" fill="white"/>
</svg>
