<svg width="39" height="39" viewBox="0 0 39 39" fill="none" xmlns="http://www.w3.org/2000/svg">
<g clip-path="url(#clip0_1525_19692)">
<path d="M19.5523 38.258C18.8476 38.0954 18.1972 37.8786 17.7635 37.2823C17.4925 36.9029 17.2757 36.4151 17.0589 35.9814C16.9505 35.7646 16.8963 35.6562 16.6794 35.602C15.2701 35.331 13.8608 34.8431 12.5599 34.1926C10.5001 33.1628 8.71129 31.7534 7.24775 29.9647C7.08513 29.7478 6.92252 29.7478 6.7057 29.802C5.35057 30.2899 3.88703 29.6936 3.18237 28.4469C2.4777 27.146 2.74872 25.574 3.94124 24.7068C4.15806 24.5441 4.21226 24.3815 4.10385 24.1105C3.12816 20.9124 3.12816 17.6601 4.10385 14.462C4.15806 14.2452 4.15806 14.0826 3.94124 13.9199C2.74872 13.0527 2.42349 11.4807 3.12816 10.1798C3.83283 8.87886 5.29637 8.33681 6.7057 8.82466C6.97672 8.93307 7.08513 8.82466 7.24775 8.66204C8.71129 6.87327 10.5001 5.46394 12.5599 4.43404C13.8066 3.78358 15.1617 3.34994 16.5168 3.07891C16.8421 3.02471 17.0589 2.9163 17.1673 2.48266C17.3841 1.18173 18.6308 0.314453 19.986 0.314453C21.3411 0.314453 22.5336 1.29015 22.8046 2.59107C22.8588 2.9163 23.0214 3.02471 23.2925 3.07891C25.5149 3.51255 27.5205 4.37984 29.3634 5.68076C30.6102 6.54804 31.6943 7.52373 32.6157 8.66204C32.7784 8.87886 32.941 8.93307 33.212 8.82466C34.5129 8.33681 36.0307 8.93307 36.7353 10.1256C37.44 11.4265 37.169 12.9984 36.0307 13.8657C35.8138 14.0283 35.7596 14.191 35.8138 14.462C36.7895 17.6601 36.7895 20.9124 35.8138 24.1105C35.7596 24.3273 35.7596 24.4899 35.9765 24.6525C37.0606 25.4656 37.44 26.9834 36.8979 28.2301C36.3017 29.531 34.8924 30.2899 33.5914 29.9104C32.9952 29.7478 32.7242 29.9104 32.3447 30.3441C29.9597 33.0543 26.9242 34.7889 23.4009 35.5478C23.0756 35.602 22.8588 35.7646 22.8046 36.144C22.4794 37.2823 21.7205 37.9328 20.6364 38.258C20.528 38.258 20.4738 38.3122 20.3654 38.3122C20.0402 38.258 19.8233 38.258 19.5523 38.258ZM19.9317 10.9929C15.3785 10.9929 11.6384 14.733 11.6384 19.2862C11.6384 23.8395 15.3785 27.5796 19.9317 27.5796C24.485 27.5796 28.2251 23.8395 28.2251 19.2862C28.2251 14.733 24.485 10.9929 19.9317 10.9929ZM17.1131 4.16302C13.3729 4.86768 10.3374 6.71066 7.95242 9.63773C8.60288 10.4508 8.8197 11.3181 8.60288 12.2938C8.60288 12.4022 8.71129 12.5106 8.76549 12.5648C9.47016 12.9442 10.1748 13.3237 10.8795 13.7031C11.2047 13.8657 11.53 14.0826 11.8552 14.2452C13.8066 11.3723 16.4626 9.80035 19.9317 9.80035C23.4009 9.80035 26.0027 11.4265 27.9541 14.2452C28.8756 13.7573 29.7429 13.2695 30.6102 12.7816C31.0438 12.5648 31.3148 12.348 31.2064 11.7517C31.0438 10.9387 31.369 10.234 31.9111 9.58353C29.5261 6.65645 26.4906 4.81348 22.7504 4.10881C22.371 5.24712 21.6121 5.89758 20.4738 6.16861C20.4738 6.98168 20.4738 7.79476 20.4738 8.55363C20.0944 8.55363 19.7149 8.55363 19.2813 8.55363C19.2813 7.74055 19.2813 6.92748 19.2813 6.16861C18.2514 5.89758 17.4925 5.24712 17.1131 4.16302ZM7.95242 28.9348C10.3916 31.8618 13.3729 33.7048 17.1131 34.4095C17.4925 33.3254 18.2514 32.6207 19.3897 32.3497C19.3897 31.5366 19.3897 30.7235 19.3897 29.9647C19.8233 29.9647 20.1486 29.9647 20.5822 29.9647C20.5822 30.7777 20.5822 31.5908 20.5822 32.3497C21.7205 32.6207 22.4252 33.3254 22.8046 34.4095C26.5448 33.6506 29.5803 31.8618 31.9653 28.9348C31.2606 27.8507 31.2064 27.5254 31.3148 26.2787C31.3148 26.1703 31.2606 26.0619 31.2064 26.0077C30.1765 25.4114 29.0924 24.8694 28.0083 24.2731C26.0569 27.146 23.4009 28.7179 19.9317 28.7179C16.4626 28.7179 13.8066 27.0918 11.8552 24.2731C10.7711 24.8694 9.74118 25.4114 8.71129 26.0077C8.65708 26.0619 8.54867 26.1703 8.60288 26.2787C8.8197 27.3086 8.54867 28.1759 7.95242 28.9348ZM11.3131 23.2432C10.1748 20.5872 10.1748 17.9311 11.3131 15.2751C10.1748 14.6788 9.09072 14.0283 7.95242 13.4321C7.19354 14.2452 6.32626 14.5704 5.24216 14.462C4.26647 17.6601 4.26647 20.804 5.24216 24.0021C6.32626 23.8937 7.19354 24.2731 7.95242 25.032C9.09072 24.4899 10.1748 23.8937 11.3131 23.2432ZM31.9111 25.0862C32.6157 24.3815 33.4288 23.9479 34.4587 24.0021C34.5129 24.0021 34.6755 23.8395 34.7297 23.7853C35.2718 22.0507 35.4886 20.3161 35.3802 18.4732C35.326 17.118 35.1092 15.8171 34.6213 14.5162C33.5914 14.6246 32.7242 14.2994 32.0195 13.5947C31.9653 13.5405 31.8027 13.5405 31.6943 13.5947C31.2064 13.8657 30.7186 14.1368 30.2849 14.3536C29.7429 14.6788 29.1466 14.9498 28.6046 15.2751C29.7429 17.9311 29.7429 20.5872 28.6046 23.2432C29.6887 23.8937 30.7728 24.4899 31.9111 25.0862ZM19.9317 5.0303C20.9074 5.0303 21.7205 4.21722 21.7205 3.29573C21.7205 2.32004 20.9616 1.50697 19.986 1.50697C19.0103 1.50697 18.1972 2.32004 18.1972 3.29573C18.143 4.21722 18.9561 5.0303 19.9317 5.0303ZM7.46457 11.5891C7.46457 10.6134 6.65149 9.80035 5.6758 9.80035C4.70011 9.80035 3.88703 10.6134 3.88703 11.5891C3.88703 12.5648 4.70011 13.3237 5.6758 13.3237C6.7057 13.3237 7.46457 12.5106 7.46457 11.5891ZM35.9223 11.5891C35.9223 10.6134 35.1092 9.80035 34.1877 9.80035C33.212 9.80035 32.3989 10.5592 32.3989 11.5349C32.3989 12.5106 33.212 13.3237 34.1877 13.3237C35.1092 13.3779 35.9223 12.5648 35.9223 11.5891ZM7.46457 26.9834C7.46457 26.0077 6.65149 25.1946 5.6758 25.1946C4.70011 25.1946 3.88703 26.0077 3.88703 26.9834C3.88703 27.9591 4.70011 28.7721 5.6758 28.7721C6.7057 28.7721 7.46457 27.9591 7.46457 26.9834ZM35.9223 26.9834C35.9223 26.0077 35.1092 25.1946 34.1877 25.1946C33.212 25.1946 32.3989 25.9535 32.3989 26.9292C32.3989 27.9049 33.212 28.7179 34.1877 28.7179C35.1092 28.7721 35.9223 27.9591 35.9223 26.9834ZM19.9317 33.5422C18.9561 33.5422 18.143 34.3553 18.143 35.2768C18.143 36.2524 18.9561 37.0655 19.9317 37.0655C20.9074 37.0655 21.7205 36.2524 21.7205 35.2768C21.7205 34.3011 20.9074 33.5422 19.9317 33.5422Z" fill="white"/>
<path d="M18.035 18.5809C16.8966 17.551 16.734 16.3042 17.0593 14.949C17.3845 13.5395 18.7939 12.618 20.1491 12.7264C21.7212 12.889 22.7511 14.0816 22.8595 15.6537C22.9137 16.7378 22.6969 17.7136 21.7754 18.5267C21.938 18.6351 22.1006 18.7977 22.2632 18.9062C23.1306 19.4482 24.0521 19.9903 24.9195 20.4782C25.1363 20.5866 25.2447 20.7492 25.1905 21.0203C25.1905 21.5624 25.1905 22.1044 25.1905 22.5923C25.2447 23.297 24.8652 23.7849 24.269 24.0017C23.6727 24.2186 23.0222 24.3812 22.4259 24.4354C20.4744 24.598 18.4687 24.6522 16.5172 24.327C16.1919 24.2728 15.8667 24.1644 15.5414 24.0559C14.8909 23.7849 14.5115 23.297 14.5657 22.5923C14.5657 22.0502 14.5657 21.5082 14.5657 20.9661C14.5657 20.7492 14.6199 20.6408 14.7825 20.5324C15.704 19.9903 16.5714 19.4482 17.4929 18.9062C17.7097 18.8519 17.8724 18.7435 18.035 18.5809ZM19.607 23.4597C20.6912 23.4054 21.4501 23.4054 22.209 23.3512C22.6969 23.297 23.239 23.1886 23.7269 23.0802C23.9979 23.026 24.0521 22.8634 24.0521 22.5923C24.2147 21.725 23.8895 21.1287 23.0222 20.8034C22.9137 20.7492 22.8053 20.695 22.7511 20.6408C22.1006 20.2072 21.4501 19.7193 20.7996 19.2856C20.7454 19.2314 20.5828 19.2314 20.4744 19.2314C20.0407 19.2314 19.6612 19.2314 19.2276 19.2314C19.1192 19.2314 18.9565 19.2314 18.9023 19.2856C18.1976 20.0445 17.2761 20.4782 16.4088 20.9661C15.8667 21.2913 15.5956 21.6166 15.704 22.2671C15.7583 23.026 15.7583 23.026 16.463 23.2428C16.5172 23.2428 16.5172 23.2428 16.5714 23.2428C17.764 23.297 18.8481 23.4054 19.607 23.4597ZM18.1434 15.9789C18.1434 16.1415 18.1434 16.3042 18.1434 16.4668C18.1976 17.3883 18.9565 18.0388 19.8239 18.093C20.6912 18.1472 21.5043 17.551 21.6127 16.6836C21.667 16.1957 21.667 15.7079 21.5585 15.2742C21.2875 14.19 19.9865 13.648 19.0107 14.19C18.4145 14.5695 18.1434 15.22 18.1434 15.9789Z" fill="white"/>
<path d="M20.529 3.83759C20.1495 3.83759 19.7701 3.83759 19.3906 3.83759C19.3906 3.45813 19.3906 3.07868 19.3906 2.69922C19.7701 2.69922 20.1495 2.69922 20.529 2.69922C20.529 3.07868 20.529 3.45813 20.529 3.83759Z" fill="white"/>
<path d="M6.27119 12.1296C5.89173 12.1296 5.51227 12.1296 5.13281 12.1296C5.13281 11.7501 5.13281 11.3707 5.13281 10.9912C5.51227 10.9912 5.89173 10.9912 6.27119 10.9912C6.27119 11.3707 6.27119 11.7501 6.27119 12.1296Z" fill="white"/>
<path d="M34.7302 10.9912C34.7302 11.3707 34.7302 11.7501 34.7302 12.1296C34.3507 12.1296 33.9713 12.1296 33.5918 12.1296C33.5918 11.7501 33.5918 11.3707 33.5918 10.9912C33.9713 10.9912 34.3507 10.9912 34.7302 10.9912Z" fill="white"/>
<path d="M6.27119 27.5788C5.89173 27.5788 5.51227 27.5788 5.13281 27.5788C5.13281 27.1993 5.13281 26.8199 5.13281 26.4404C5.51227 26.4404 5.89173 26.4404 6.27119 26.4404C6.27119 26.8199 6.27119 27.1993 6.27119 27.5788Z" fill="white"/>
<path d="M34.7302 26.4404C34.7302 26.8199 34.7302 27.1993 34.7302 27.5788C34.3507 27.5788 33.9713 27.5788 33.5918 27.5788C33.5918 27.1993 33.5918 26.8199 33.5918 26.4404C33.9713 26.4404 34.3507 26.4404 34.7302 26.4404Z" fill="white"/>
<path d="M20.529 34.7344C20.529 35.1138 20.529 35.4933 20.529 35.8727C20.1495 35.8727 19.7701 35.8727 19.3906 35.8727C19.3906 35.4933 19.3906 35.1138 19.3906 34.7344C19.7701 34.7344 20.0953 34.7344 20.529 34.7344Z" fill="white"/>
</g>
<defs>
<clipPath id="clip0_1525_19692">
<rect width="37.9978" height="37.9978" fill="white" transform="translate(0.978516 0.313477)"/>
</clipPath>
</defs>
</svg>
