<svg width="38" height="38" viewBox="0 0 38 38" fill="none" xmlns="http://www.w3.org/2000/svg">
<g clip-path="url(#clip0_1525_19649)">
<path d="M27.6098 11.5188C26.5411 12.5875 25.4723 13.6562 24.3442 14.7844C25.6504 16.5063 26.1254 18.4656 25.6504 20.6031C25.2348 22.2656 24.2848 23.6313 22.8598 24.5813C20.0692 26.5406 16.3286 26.125 14.0129 23.6313C11.6379 21.0781 11.5192 17.3375 13.7754 14.6656C15.7942 12.2313 19.7129 11.0437 23.2161 13.5969C24.2848 12.5281 25.3536 11.4594 26.4223 10.3313C24.5223 8.72812 22.3254 7.77813 19.7129 7.6C19.7129 8.3125 19.7129 8.96562 19.7129 9.67812C19.7129 10.2719 19.4161 10.6281 18.9411 10.6281C18.4661 10.6281 18.1692 10.2719 18.1692 9.67812C18.1692 8.13437 18.1692 6.65 18.1692 5.10625C18.1692 4.92813 18.1692 4.75 18.1692 4.57188C16.6848 4.63125 15.2598 4.92812 13.8942 5.4625C9.14419 7.3625 6.11606 10.8063 4.86918 15.7937C4.86918 15.9125 4.80981 15.9719 4.80981 16.0906C4.69106 16.5063 4.33481 16.7437 3.91918 16.6844C3.50356 16.5656 3.26606 16.2094 3.32543 15.7344C3.74106 13.5969 4.57231 11.6375 5.81919 9.91563C8.78794 5.9375 12.6473 3.62188 17.5754 3.14688C17.7536 3.14688 17.9911 3.0875 18.2286 3.0875C18.2286 2.43437 18.2286 1.72187 18.2286 1.06875C18.2286 0.35625 18.4661 0 19.0004 0C19.4754 0 19.7723 0.35625 19.7723 1.00937C19.7723 2.55312 19.7723 4.0375 19.7723 5.58125C19.7723 5.75937 19.7723 5.9375 19.7723 6.11562C22.7411 6.35313 25.3536 7.42188 27.5504 9.32187C27.9067 8.96562 28.2036 8.60938 28.6192 8.19375C27.8473 7.65938 27.1348 7.06563 26.3036 6.59063C24.9973 5.81875 23.6317 5.225 22.1473 4.92812C22.0286 4.92812 21.9098 4.86875 21.8504 4.86875C21.4348 4.75 21.1973 4.33437 21.3161 3.91875C21.4348 3.50312 21.7911 3.26562 22.2661 3.38437C24.1661 3.74062 25.8879 4.45312 27.4911 5.52187C28.2629 6.05625 28.9754 6.59062 29.8661 7.24375C29.9254 7.00625 30.1036 6.82812 30.1036 6.65C30.1036 5.81875 30.1036 5.04688 30.1036 4.21562C30.1036 3.91875 30.2223 3.5625 30.4598 3.38437C31.4098 2.375 32.4192 1.36563 33.4286 0.35625C33.7254 0.059375 34.0223 -0.059375 34.3786 0.11875C34.7348 0.2375 34.8536 0.59375 34.8536 0.95C34.8536 1.72187 34.8536 2.43438 34.8536 3.26562C35.6254 3.26562 36.3973 3.26562 37.1692 3.26562C37.5848 3.26562 37.8817 3.38438 38.0598 3.74063C38.1786 4.15625 38.0598 4.45312 37.7629 4.69063C36.7536 5.64062 35.8036 6.65 34.8536 7.6C34.6161 7.8375 34.2598 7.95625 33.9629 7.95625C33.1911 8.01562 32.3598 7.95625 31.5879 7.95625C31.4098 7.95625 31.1723 8.13438 30.9348 8.19375C32.2411 9.67813 33.1911 11.1625 33.9036 12.8844C34.6161 14.6063 34.9723 16.3281 35.0911 18.2281C35.8036 18.2281 36.5161 18.2281 37.1692 18.2281C37.7629 18.2281 38.1192 18.525 38.1192 19C38.1192 19.475 37.7629 19.7719 37.1692 19.7719C35.6254 19.7719 34.0817 19.7719 32.5379 19.7719C32.3598 19.7719 32.1817 19.7719 32.1223 19.7719C31.7661 21.0781 31.5879 22.3844 31.1129 23.5719C29.5692 27.55 26.7192 30.1625 22.6223 31.4094C22.5036 31.4094 22.4442 31.4688 22.3254 31.4688C21.8504 31.5875 21.4942 31.35 21.3754 30.9344C21.2567 30.5187 21.4942 30.1625 21.9692 29.9844C22.2661 29.8656 22.5629 29.8062 22.8004 29.6875C27.3129 27.9656 29.8661 24.6406 30.4004 19.8906C30.4004 19.8312 30.4004 19.8313 30.4004 19.7125C29.7473 19.7125 29.0348 19.7125 28.3817 19.7125C27.7879 19.7125 27.4317 19.4156 27.4317 18.9406C27.4317 18.4656 27.7879 18.1688 28.3817 18.1688C29.9254 18.1688 31.4098 18.1688 32.9536 18.1688C33.1317 18.1688 33.3098 18.1688 33.4879 18.1688C33.2504 14.7844 32.0629 11.8156 29.8661 9.32187C29.5098 9.67812 29.1536 10.0344 28.7973 10.3906C28.8567 10.45 28.9161 10.5688 29.0348 10.6875C30.1629 12.0531 30.9942 13.5969 31.4692 15.3187C31.7067 16.0312 31.5286 16.4469 31.0536 16.625C30.5786 16.7437 30.2223 16.4469 30.0442 15.7937C29.4504 14.25 28.6786 12.825 27.6098 11.5188ZM22.0879 14.7844C20.3067 13.3 17.2192 13.1812 15.1411 15.3187C13.1223 17.4562 13.1223 20.6031 15.2004 22.6812C17.2786 24.7594 20.4848 24.8188 22.5629 22.8C24.7004 20.7812 24.7004 17.6938 23.1567 15.7937C22.8598 16.0906 22.6223 16.3281 22.3254 16.625C22.0879 16.8031 22.1473 16.9813 22.2661 17.2188C22.6817 18.05 22.8598 18.8813 22.6223 19.7719C22.1473 21.85 20.0098 23.1562 17.9911 22.6219C15.9129 22.0875 14.6661 19.8906 15.2598 17.8719C15.9129 15.7937 18.1098 14.5469 20.0692 15.3781C20.9004 15.7344 21.3754 15.4969 21.7911 14.9031C21.9692 14.9031 22.0286 14.8438 22.0879 14.7844ZM21.0192 17.9906C20.4848 18.525 20.0098 19.0594 19.5348 19.5344C19.2379 19.8313 18.8223 19.8313 18.5254 19.5344C18.2286 19.2375 18.1692 18.8813 18.4067 18.525C18.5254 18.4062 18.6442 18.2875 18.7629 18.1688C19.1786 17.7531 19.5942 17.3375 20.0098 16.9219C18.8817 16.4469 17.7536 16.8031 17.1598 17.6938C16.5661 18.5844 16.6848 19.7719 17.4567 20.5437C18.2286 21.3156 19.3567 21.4344 20.3067 20.8406C21.1379 20.2469 21.4942 19.1187 21.0192 17.9906ZM31.5879 6.4125C32.2411 6.4125 32.8348 6.4125 33.4286 6.4125C33.5473 6.4125 33.7254 6.4125 33.7848 6.35313C34.2598 5.87812 34.7942 5.34375 35.3879 4.75C34.8536 4.75 34.4379 4.75 34.0817 4.75C33.5473 4.75 33.2504 4.45312 33.2504 3.91875C33.2504 3.50312 33.2504 3.0875 33.2504 2.55313C32.6567 3.14688 32.1817 3.62188 31.7067 4.09688C31.6473 4.15625 31.5879 4.275 31.5879 4.39375C31.5286 5.10625 31.5879 5.7 31.5879 6.4125Z" fill="white"/>
<path d="M2.96953 19.7717C2.31641 19.7717 1.60391 19.7717 0.891406 19.7717C0.297656 19.7717 -0.0585938 19.4749 -0.0585938 18.9999C-0.0585938 18.5249 0.297656 18.2874 0.832031 18.228C2.55391 18.228 4.21641 18.228 5.93828 18.228C6.17578 17.2186 6.29453 16.2686 6.59141 15.3186C6.82891 14.5467 7.18516 13.7749 7.48203 13.0624C7.71953 12.5874 8.13516 12.4092 8.55078 12.6467C8.96641 12.8842 9.08516 13.2999 8.78828 13.7749C8.07578 15.1999 7.60078 16.6842 7.54141 18.2874C8.19453 18.2874 8.78828 18.2874 9.44141 18.2874C10.1539 18.2874 10.5102 18.5249 10.5695 19.0592C10.5695 19.5936 10.2133 19.8311 9.44141 19.8311C7.95703 19.8311 6.53203 19.8311 5.04766 19.8311C4.86953 19.8311 4.69141 19.8311 4.51328 19.8311C4.57266 21.078 4.75078 22.2655 5.16641 23.3936C6.94766 28.5592 10.4508 31.8249 15.7352 33.1311C15.9133 33.1905 16.1508 33.2499 16.3289 33.3686C16.6258 33.6061 16.7445 33.903 16.5664 34.2592C16.3883 34.6155 16.0914 34.7936 15.6758 34.7342C13.8352 34.3186 12.0539 33.6655 10.4508 32.6561C6.17578 29.6874 3.68203 25.6499 3.08828 20.4249C3.08828 20.2467 3.02891 20.0686 3.02891 19.8905C3.02891 19.8905 3.02891 19.8311 2.96953 19.7717Z" fill="white"/>
<path d="M19.7727 34.9723C19.7727 35.6848 19.7727 36.3379 19.7727 37.0504C19.7727 37.6441 19.4758 38.0004 19.0008 38.0004C18.5258 38.0004 18.2289 37.6441 18.2289 37.0504C18.2289 35.5066 18.2289 33.9629 18.2289 32.4191C18.2289 32.241 18.2289 32.0629 18.2289 31.9441C17.457 31.8254 16.7445 31.7066 16.032 31.5285C11.2227 30.2816 8.07578 27.3129 6.59141 22.5629C6.53203 22.3848 6.47266 22.266 6.47266 22.0879C6.47266 21.6723 6.65078 21.4348 7.00703 21.316C7.36328 21.1973 7.71953 21.316 7.89766 21.6723C7.95703 21.8504 8.01641 22.0285 8.07578 22.2066C9.38203 26.7191 13.5977 30.1629 18.2289 30.341C18.2289 29.6879 18.2289 28.9754 18.2289 28.3223C18.2289 27.7285 18.5258 27.3723 18.9414 27.3723C19.4164 27.3723 19.7133 27.7285 19.7133 28.3223C19.7133 29.8066 19.7133 31.3504 19.7133 32.8348C19.7133 33.0129 19.7133 33.191 19.7133 33.4879C20.6633 33.3098 21.6133 33.191 22.5039 33.0129C24.107 32.6566 25.532 32.0035 26.8977 31.1129C27.0164 31.0535 27.1352 30.9348 27.2539 30.8754C27.6102 30.7566 27.907 30.816 28.1445 31.1129C28.382 31.4098 28.3227 31.766 28.0852 32.0035C27.9664 32.1223 27.7883 32.241 27.6102 32.3598C25.2945 33.8441 22.7414 34.6754 20.0102 34.9129C20.0102 34.9129 19.8914 34.9723 19.7727 34.9723Z" fill="white"/>
<path d="M31.9437 27.9654C31.1719 27.9654 30.875 27.3717 31.1719 26.7185C31.7062 25.6498 32.2406 24.5217 32.7156 23.3935C32.8937 22.9185 33.0125 22.3842 33.1312 21.9092C33.25 21.4342 33.6062 21.1967 34.0219 21.256C34.4375 21.3748 34.675 21.731 34.6156 22.2654C34.2594 24.1654 33.5469 25.8873 32.4781 27.4904C32.3 27.7279 32.0625 27.906 31.9437 27.9654Z" fill="white"/>
<path d="M12.1727 9.67773C11.9946 9.49961 11.6977 9.32148 11.5789 9.02461C11.4008 8.66836 11.6383 8.37148 11.9352 8.13398C13.0633 7.42148 14.3102 6.82773 15.6164 6.53086C16.0321 6.41211 16.3289 6.53086 16.5071 6.88711C16.7446 7.30273 16.5664 7.83711 16.0914 8.01523C14.8446 8.37148 13.7164 8.84648 12.6477 9.55898C12.5883 9.55898 12.4696 9.55898 12.1727 9.67773Z" fill="white"/>
<path d="M10.8066 10.8061C10.8066 11.2217 10.4504 11.5186 10.0348 11.5186C9.61914 11.5186 9.32227 11.1623 9.32227 10.7467C9.32227 10.3311 9.67852 10.0342 10.0941 10.0342C10.4504 10.0342 10.8066 10.3904 10.8066 10.8061Z" fill="white"/>
<path d="M30.6375 29.5689C30.6375 29.9846 30.2812 30.3408 29.8656 30.3408C29.45 30.3408 29.0938 30.0439 29.0938 29.6283C29.0938 29.2127 29.3906 28.8564 29.8062 28.8564C30.2812 28.8564 30.6375 29.1533 30.6375 29.5689Z" fill="white"/>
</g>
<defs>
<clipPath id="clip0_1525_19649">
<rect width="38" height="38" fill="white"/>
</clipPath>
</defs>
</svg>
